  0
SECTION
  2
HEADER
  9
$ACADVER
  1
AC1015
  9
$ACADMAINTVER
 70
     6
  9
$DWGCODEPAGE
  3
ANSI_1252
  9
$INSBASE
 10
0.0
 20
0.0
 30
0.0
  9
$EXTMIN
 10
0.0
 20
0.0
 30
0.0
  9
$EXTMAX
 10
3.8
 20
1.57
 30
0.0
  9
$LIMMIN
 10
0.0
 20
0.0
  9
$LIMMAX
 10
12.0
 20
9.0
  9
$ORTHOMODE
 70
     0
  9
$REGENMODE
 70
     1
  9
$FILLMODE
 70
     1
  9
$QTEXTMODE
 70
     0
  9
$MIRRTEXT
 70
     1
  9
$LTSCALE
 40
1.0
  9
$ATTMODE
 70
     1
  9
$TEXTSIZE
 40
0.1377952756
  9
$TRACEWID
 40
0.05
  9
$TEXTSTYLE
  7
Standard
  9
$CLAYER
  8
0
  9
$CELTYPE
  6
ByLayer
  9
$CECOLOR
 62
   256
  9
$CELTSCALE
 40
1.0
  9
$DISPSILH
 70
     0
  9
$DIMSCALE
 40
1.0
  9
$DIMASZ
 40
0.2362204724
  9
$DIMEXO
 40
0.0393700787
  9
$DIMDLI
 40
0.38
  9
$DIMRND
 40
0.0
  9
$DIMDLE
 40
0.0
  9
$DIMEXE
 40
0.0393700787
  9
$DIMTP
 40
0.0
  9
$DIMTM
 40
0.0
  9
$DIMTXT
 40
0.1377952756
  9
$DIMCEN
 40
0.09
  9
$DIMTSZ
 40
0.0
  9
$DIMTOL
 70
     0
  9
$DIMLIM
 70
     0
  9
$DIMTIH
 70
     1
  9
$DIMTOH
 70
     1
  9
$DIMSE1
 70
     0
  9
$DIMSE2
 70
     0
  9
$DIMTAD
 70
     1
  9
$DIMZIN
 70
     0
  9
$DIMBLK
  1

  9
$DIMASO
 70
     1
  9
$DIMSHO
 70
     1
  9
$DIMPOST
  1

  9
$DIMAPOST
  1

  9
$DIMALT
 70
     0
  9
$DIMALTD
 70
     2
  9
$DIMALTF
 40
25.4
  9
$DIMLFAC
 40
1.0
  9
$DIMTOFL
 70
     0
  9
$DIMTVP
 40
0.0
  9
$DIMTIX
 70
     0
  9
$DIMSOXD
 70
     0
  9
$DIMSAH
 70
     0
  9
$DIMBLK1
  1

  9
$DIMBLK2
  1

  9
$DIMSTYLE
  2
Standard
  9
$DIMCLRD
 70
     0
  9
$DIMCLRE
 70
     0
  9
$DIMCLRT
 70
     0
  9
$DIMTFAC
 40
1.0
  9
$DIMGAP
 40
0.06
  9
$DIMJUST
 70
     0
  9
$DIMSD1
 70
     0
  9
$DIMSD2
 70
     0
  9
$DIMTOLJ
 70
     1
  9
$DIMTZIN
 70
     0
  9
$DIMALTZ
 70
     0
  9
$DIMALTTZ
 70
     0
  9
$DIMUPT
 70
     0
  9
$DIMDEC
 70
     2
  9
$DIMTDEC
 70
     2
  9
$DIMALTU
 70
     2
  9
$DIMALTTD
 70
     2
  9
$DIMTXSTY
  7
Standard
  9
$DIMAUNIT
 70
     0
  9
$DIMADEC
 70
     2
  9
$DIMALTRND
 40
0.0
  9
$DIMAZIN
 70
     0
  9
$DIMDSEP
 70
    46
  9
$DIMATFIT
 70
     3
  9
$DIMFRAC
 70
     0
  9
$DIMLDRBLK
  1

  9
$DIMLUNIT
 70
     2
  9
$DIMLWD
 70
    -2
  9
$DIMLWE
 70
    -2
  9
$DIMTMOVE
 70
     0
  9
$LUNITS
 70
     2
  9
$LUPREC
 70
     2
  9
$SKETCHINC
 40
0.1
  9
$FILLETRAD
 40
0.5
  9
$AUNITS
 70
     0
  9
$AUPREC
 70
     2
  9
$MENU
  1
.
  9
$ELEVATION
 40
0.0
  9
$PELEVATION
 40
0.0
  9
$THICKNESS
 40
0.0
  9
$LIMCHECK
 70
     0
  9
$CHAMFERA
 40
0.5
  9
$CHAMFERB
 40
0.5
  9
$CHAMFERC
 40
1.0
  9
$CHAMFERD
 40
0.0
  9
$SKPOLY
 70
     0
  9
$TDCREATE
 40
2456637.940523333
  9
$TDUCREATE
 40
2456638.148856667
  9
$TDUPDATE
 40
2456637.94055265
  9
$TDUUPDATE
 40
2456638.148885984
  9
$TDINDWG
 40
0.0000000116
  9
$TDUSRTIMER
 40
0.0000000116
  9
$USRTIMER
 70
     1
  9
$ANGBASE
 50
0.0
  9
$ANGDIR
 70
     0
  9
$PDMODE
 70
     0
  9
$PDSIZE
 40
-1.0
  9
$PLINEWID
 40
0.0
  9
$SPLFRAME
 70
     0
  9
$SPLINETYPE
 70
     6
  9
$SPLINESEGS
 70
     8
  9
$HANDSEED
  5
219
  9
$SURFTAB1
 70
     6
  9
$SURFTAB2
 70
     6
  9
$SURFTYPE
 70
     6
  9
$SURFU
 70
     6
  9
$SURFV
 70
     6
  9
$UCSBASE
  2

  9
$UCSNAME
  2

  9
$UCSORG
 10
0.0
 20
0.0
 30
0.0
  9
$UCSXDIR
 10
1.0
 20
0.0
 30
0.0
  9
$UCSYDIR
 10
0.0
 20
1.0
 30
0.0
  9
$UCSORTHOREF
  2

  9
$UCSORTHOVIEW
 70
     0
  9
$UCSORGTOP
 10
0.0
 20
0.0
 30
0.0
  9
$UCSORGBOTTOM
 10
0.0
 20
0.0
 30
0.0
  9
$UCSORGLEFT
 10
0.0
 20
0.0
 30
0.0
  9
$UCSORGRIGHT
 10
0.0
 20
0.0
 30
0.0
  9
$UCSORGFRONT
 10
0.0
 20
0.0
 30
0.0
  9
$UCSORGBACK
 10
0.0
 20
0.0
 30
0.0
  9
$PUCSBASE
  2

  9
$PUCSNAME
  2

  9
$PUCSORG
 10
0.0
 20
0.0
 30
0.0
  9
$PUCSXDIR
 10
1.0
 20
0.0
 30
0.0
  9
$PUCSYDIR
 10
0.0
 20
1.0
 30
0.0
  9
$PUCSORTHOREF
  2

  9
$PUCSORTHOVIEW
 70
     0
  9
$PUCSORGTOP
 10
0.0
 20
0.0
 30
0.0
  9
$PUCSORGBOTTOM
 10
0.0
 20
0.0
 30
0.0
  9
$PUCSORGLEFT
 10
0.0
 20
0.0
 30
0.0
  9
$PUCSORGRIGHT
 10
0.0
 20
0.0
 30
0.0
  9
$PUCSORGFRONT
 10
0.0
 20
0.0
 30
0.0
  9
$PUCSORGBACK
 10
0.0
 20
0.0
 30
0.0
  9
$USERI1
 70
     0
  9
$USERI2
 70
     0
  9
$USERI3
 70
     0
  9
$USERI4
 70
     0
  9
$USERI5
 70
     0
  9
$USERR1
 40
0.0
  9
$USERR2
 40
0.0
  9
$USERR3
 40
0.0
  9
$USERR4
 40
0.0
  9
$USERR5
 40
0.0
  9
$WORLDVIEW
 70
     1
  9
$SHADEDGE
 70
     3
  9
$SHADEDIF
 70
    70
  9
$TILEMODE
 70
     1
  9
$MAXACTVP
 70
    64
  9
$PINSBASE
 10
0.0
 20
0.0
 30
0.0
  9
$PLIMCHECK
 70
     0
  9
$PEXTMIN
 10
1.0000000000E+20
 20
1.0000000000E+20
 30
1.0000000000E+20
  9
$PEXTMAX
 10
-1.0000000000E+20
 20
-1.0000000000E+20
 30
-1.0000000000E+20
  9
$PLIMMIN
 10
0.0
 20
0.0
  9
$PLIMMAX
 10
12.0
 20
9.0
  9
$UNITMODE
 70
     0
  9
$VISRETAIN
 70
     1
  9
$PLINEGEN
 70
     0
  9
$PSLTSCALE
 70
     1
  9
$TREEDEPTH
 70
  3020
  9
$CMLSTYLE
  2
Standard
  9
$CMLJUST
 70
     0
  9
$CMLSCALE
 40
1.0
  9
$PROXYGRAPHICS
 70
     1
  9
$MEASUREMENT
 70
     0
  9
$CELWEIGHT
370
    -1
  9
$ENDCAPS
280
     0
  9
$JOINSTYLE
280
     0
  9
$LWDISPLAY
290
     1
  9
$INSUNITS
 70
     1
  9
$HYPERLINKBASE
  1

  9
$STYLESHEET
  1

  9
$XEDIT
290
     1
  9
$CEPSNTYPE
380
     0
  9
$PSTYLEMODE
290
     1
  9
$FINGERPRINTGUID
  2
{46FC0011-4116-46B0-AB26-519C69873778}
  9
$VERSIONGUID
  2
{FAEB1C32-E019-11D5-929B-00C0DF256EC4}
  9
$EXTNAMES
290
     1
  9
$PSVPSCALE
 40
0.0
  9
$OLESTARTUP
290
     0
  0
ENDSEC
  0
SECTION
  2
CLASSES
  0
CLASS
  1
ACDBDICTIONARYWDFLT
  2
AcDbDictionaryWithDefault
  3
ObjectDBX Classes
 90
        0
280
     0
281
     0
  0
CLASS
  1
VISUALSTYLE
  2
AcDbVisualStyle
  3
ObjectDBX Classes
 90
     4095
280
     0
281
     0
  0
CLASS
  1
MATERIAL
  2
AcDbMaterial
  3
ObjectDBX Classes
 90
     1153
280
     0
281
     0
  0
CLASS
  1
ACDBPLACEHOLDER
  2
AcDbPlaceHolder
  3
ObjectDBX Classes
 90
        0
280
     0
281
     0
  0
CLASS
  1
LAYOUT
  2
AcDbLayout
  3
ObjectDBX Classes
 90
        0
280
     0
281
     0
  0
ENDSEC
  0
SECTION
  2
TABLES
  0
TABLE
  2
VPORT
  5
8
330
0
100
AcDbSymbolTable
 70
     1
  0
VPORT
  5
29
330
8
100
AcDbSymbolTableRecord
100
AcDbViewportTableRecord
  2
*Active
 70
     0
 10
0.0
 20
0.0
 11
1.0
 21
1.0
 12
1.9
 22
0.785
 13
0.0
 23
0.0
 14
0.5
 24
0.5
 15
0.5
 25
0.5
 16
0.0
 26
0.0
 36
1.0
 17
0.0
 27
0.0
 37
0.0
 40
1.6014
 41
2.4203821656
 42
50.0
 43
0.0
 44
0.0
 50
0.0
 51
0.0
 71
     0
 72
   100
 73
     1
 74
     3
 75
     0
 76
     0
 77
     0
 78
     0
281
     0
 65
     1
110
0.0
120
0.0
130
0.0
111
1.0
121
0.0
131
0.0
112
0.0
122
1.0
132
0.0
 79
     0
146
0.0
  0
ENDTAB
  0
TABLE
  2
LTYPE
  5
5
330
0
100
AcDbSymbolTable
 70
     6
  0
LTYPE
  5
14
330
5
100
AcDbSymbolTableRecord
100
AcDbLinetypeTableRecord
  2
ByBlock
 70
     0
  3

 72
    65
 73
     0
 40
0.0
  0
LTYPE
  5
15
330
5
100
AcDbSymbolTableRecord
100
AcDbLinetypeTableRecord
  2
ByLayer
 70
     0
  3

 72
    65
 73
     0
 40
0.0
  0
LTYPE
  5
16
330
5
100
AcDbSymbolTableRecord
100
AcDbLinetypeTableRecord
  2
Continuous
 70
     0
  3
Solid line
 72
    65
 73
     0
 40
0.0
  0
LTYPE
  5
3F
330
5
100
AcDbSymbolTableRecord
100
AcDbLinetypeTableRecord
  2
HIDDEN
 70
     0
  3
Hidden __ __ __ __ __ __ __ __ __ __ __ __ __ __
 72
    65
 73
     2
 40
0.075
 49
0.05
 74
     0
 49
-0.025
 74
     0
  0
LTYPE
  5
40
330
5
100
AcDbSymbolTableRecord
100
AcDbLinetypeTableRecord
  2
PHANTOM
 70
     0
  3
Phantom ______  __  __  ______  __  __  ______
 72
    65
 73
     6
 40
0.5
 49
0.25
 74
     0
 49
-0.05
 74
     0
 49
0.05
 74
     0
 49
-0.05
 74
     0
 49
0.05
 74
     0
 49
-0.05
 74
     0
  0
LTYPE
  5
41
330
5
100
AcDbSymbolTableRecord
100
AcDbLinetypeTableRecord
  2
CENTER
 70
     0
  3
Center ____ _ ____ _ ____ _ ____ _ ____ _ ____
 72
    65
 73
     4
 40
0.4
 49
0.25
 74
     0
 49
-0.05
 74
     0
 49
0.05
 74
     0
 49
-0.05
 74
     0
  0
LTYPE
  5
42
330
5
100
AcDbSymbolTableRecord
100
AcDbLinetypeTableRecord
  2
CENTERX2
 70
     0
  3
Center (2x) ________  __  ________  __  _____
 72
    65
 73
     4
 40
0.8
 49
0.5
 74
     0
 49
-0.1
 74
     0
 49
0.1
 74
     0
 49
-0.1
 74
     0
  0
LTYPE
  5
43
330
5
100
AcDbSymbolTableRecord
100
AcDbLinetypeTableRecord
  2
DOT2
 70
     0
  3
Dot (.5x) ........................................
 72
    65
 73
     2
 40
0.025
 49
0.0
 74
     0
 49
-0.025
 74
     0
  0
ENDTAB
  0
TABLE
  2
LAYER
  5
2
330
0
100
AcDbSymbolTable
 70
     1
  0
LAYER
  5
10
330
2
100
AcDbSymbolTableRecord
100
AcDbLayerTableRecord
  2
0
 70
     0
 62
     7
  6
Continuous
370
    -3
390
F
  0
ENDTAB
  0
TABLE
  2
STYLE
  5
3
330
0
100
AcDbSymbolTable
 70
     2
  0
STYLE
  5
11
330
3
100
AcDbSymbolTableRecord
100
AcDbTextStyleTableRecord
  2
Standard
 70
     0
 40
0.0
 41
1.0
 50
0.0
 71
     0
 42
0.1377952756
  3
txt
  4

  0
STYLE
  5
216
330
3
100
AcDbSymbolTableRecord
100
AcDbTextStyleTableRecord
  2
SLDTEXTSTYLE0
 70
     0
 40
0.0
 41
0.7
 50
0.0
 71
     0
 42
0.2
  3
TXT
  4

  0
ENDTAB
  0
TABLE
  2
VIEW
  5
6
330
0
100
AcDbSymbolTable
 70
     0
  0
ENDTAB
  0
TABLE
  2
UCS
  5
7
330
0
100
AcDbSymbolTable
 70
     0
  0
ENDTAB
  0
TABLE
  2
APPID
  5
9
330
0
100
AcDbSymbolTable
 70
     1
  0
APPID
  5
12
330
9
100
AcDbSymbolTableRecord
100
AcDbRegAppTableRecord
  2
ACAD
 70
     0
  0
ENDTAB
  0
TABLE
  2
DIMSTYLE
  5
A
330
0
100
AcDbSymbolTable
 70
     1
100
AcDbDimStyleTable
  0
DIMSTYLE
105
27
330
A
100
AcDbSymbolTableRecord
100
AcDbDimStyleTableRecord
  2
Standard
 70
     0
178
     0
340
11
  0
ENDTAB
  0
TABLE
  2
BLOCK_RECORD
  5
1
330
0
100
AcDbSymbolTable
 70
     1
  0
BLOCK_RECORD
  5
1F
330
1
100
AcDbSymbolTableRecord
100
AcDbBlockTableRecord
  2
*Model_Space
340
22
  0
BLOCK_RECORD
  5
1B
330
1
100
AcDbSymbolTableRecord
100
AcDbBlockTableRecord
  2
*Paper_Space
340
1E
  0
BLOCK_RECORD
  5
23
330
1
100
AcDbSymbolTableRecord
100
AcDbBlockTableRecord
  2
*Paper_Space0
340
26
  0
ENDTAB
  0
ENDSEC
  0
SECTION
  2
BLOCKS
  0
BLOCK
  5
20
330
1F
100
AcDbEntity
  8
0
100
AcDbBlockBegin
  2
*Model_Space
 70
     0
 10
0.0
 20
0.0
 30
0.0
  3
*Model_Space
  1

  0
ENDBLK
  5
21
330
1F
100
AcDbEntity
  8
0
100
AcDbBlockEnd
  0
BLOCK
  5
1C
330
1B
100
AcDbEntity
 67
     1
  8
0
100
AcDbBlockBegin
  2
*Paper_Space
 70
     0
 10
0.0
 20
0.0
 30
0.0
  3
*Paper_Space
  1

  0
ENDBLK
  5
1D
330
1B
100
AcDbEntity
 67
     1
  8
0
100
AcDbBlockEnd
  0
BLOCK
  5
24
330
23
100
AcDbEntity
  8
0
100
AcDbBlockBegin
  2
*Paper_Space0
 70
     0
 10
0.0
 20
0.0
 30
0.0
  3
*Paper_Space0
  1

  0
ENDBLK
  5
25
330
23
100
AcDbEntity
  8
0
100
AcDbBlockEnd
  0
ENDSEC
  0
SECTION
  2
ENTITIES
  0
LINE
  5
44
330
1F
100
AcDbEntity
  8
0
  6
Continuous
 62
     7
100
AcDbLine
 10
1.1849475521
 20
0.4957602144
 30
0.0
 11
1.1896008271
 21
0.4951224894
 31
0.0
  0
LINE
  5
45
330
1F
100
AcDbEntity
  8
0
  6
Continuous
 62
     7
100
AcDbLine
 10
1.1896008271
 20
0.4951224894
 30
0.0
 11
1.1888610771
 21
0.5055568144
 31
0.0
  0
LINE
  5
46
330
1F
100
AcDbEntity
  8
0
  6
Continuous
 62
     7
100
AcDbLine
 10
1.2273608021
 20
0.4464045894
 30
0.0
 11
1.2276930021
 21
0.3706717894
 31
0.0
  0
LINE
  5
47
330
1F
100
AcDbEntity
  8
0
  6
Continuous
 62
     7
100
AcDbLine
 10
1.2276930021
 20
0.3706717894
 30
0.0
 11
1.2223613021
 21
0.3695189894
 31
0.0
  0
LINE
  5
48
330
1F
100
AcDbEntity
  8
0
  6
Continuous
 62
     7
100
AcDbLine
 10
1.1870658771
 20
0.3967013644
 30
0.0
 11
1.1893467271
 21
0.3976627644
 31
0.0
  0
LINE
  5
49
330
1F
100
AcDbEntity
  8
0
  6
Continuous
 62
     7
100
AcDbLine
 10
1.1893467271
 20
0.3976627644
 30
0.0
 11
1.1890808021
 21
0.4306509394
 31
0.0
  0
LINE
  5
4A
330
1F
100
AcDbEntity
  8
0
  6
Continuous
 62
     7
100
AcDbLine
 10
1.1890808021
 20
0.4306509394
 30
0.0
 11
1.1888151521
 21
0.4636388394
 31
0.0
  0
LINE
  5
4B
330
1F
100
AcDbEntity
  8
0
  6
Continuous
 62
     7
100
AcDbLine
 10
1.1888151521
 20
0.4636388394
 30
0.0
 11
1.1842806771
 21
0.4645265394
 31
0.0
  0
LINE
  5
4C
330
1F
100
AcDbEntity
  8
0
  6
Continuous
 62
     7
100
AcDbLine
 10
2.0977938271
 20
0.4957712144
 30
0.0
 11
2.1025408771
 21
0.4951205644
 31
0.0
  0
LINE
  5
4D
330
1F
100
AcDbEntity
  8
0
  6
Continuous
 62
     7
100
AcDbLine
 10
2.1025408771
 20
0.4951205644
 30
0.0
 11
2.1020038021
 21
0.5066139144
 31
0.0
  0
LINE
  5
4E
330
1F
100
AcDbEntity
  8
0
  6
Continuous
 62
     7
100
AcDbLine
 10
1.9970588521
 20
0.5628690144
 30
0.0
 11
1.9969472021
 21
0.5705046644
 31
0.0
  0
LINE
  5
4F
330
1F
100
AcDbEntity
  8
0
  6
Continuous
 62
     7
100
AcDbLine
 10
1.9969472021
 20
0.5705046644
 30
0.0
 11
2.0076711021
 21
0.5732029644
 31
0.0
  0
LINE
  5
50
330
1F
100
AcDbEntity
  8
0
  6
Continuous
 62
     7
100
AcDbLine
 10
2.1415441271
 20
0.4394308644
 30
0.0
 11
2.1415441271
 21
0.3707784894
 31
0.0
  0
LINE
  5
51
330
1F
100
AcDbEntity
  8
0
  6
Continuous
 62
     7
100
AcDbLine
 10
2.1415441271
 20
0.3707784894
 30
0.0
 11
2.1337349521
 21
0.3691249144
 31
0.0
  0
LINE
  5
52
330
1F
100
AcDbEntity
  8
0
  6
Continuous
 62
     7
100
AcDbLine
 10
2.0978950271
 20
0.3958293394
 30
0.0
 11
2.1022460771
 21
0.3969249394
 31
0.0
  0
LINE
  5
53
330
1F
100
AcDbEntity
  8
0
  6
Continuous
 62
     7
100
AcDbLine
 10
2.1022460771
 20
0.3969249394
 30
0.0
 11
2.1022460771
 21
0.4304287394
 31
0.0
  0
LINE
  5
54
330
1F
100
AcDbEntity
  8
0
  6
Continuous
 62
     7
100
AcDbLine
 10
2.1022460771
 20
0.4304287394
 30
0.0
 11
2.1022460771
 21
0.4639325394
 31
0.0
  0
LINE
  5
55
330
1F
100
AcDbEntity
  8
0
  6
Continuous
 62
     7
100
AcDbLine
 10
2.1022460771
 20
0.4639325394
 30
0.0
 11
2.0979635021
 21
0.4645776894
 31
0.0
  0
LINE
  5
56
330
1F
100
AcDbEntity
  8
0
  6
Continuous
 62
     7
100
AcDbLine
 10
2.0845437771
 20
0.3937044144
 30
0.0
 11
2.0845437771
 21
0.3937027644
 31
0.0
  0
LINE
  5
57
330
1F
100
AcDbEntity
  8
0
  6
Continuous
 62
     7
100
AcDbLine
 10
2.6612372021
 20
0.5774429144
 30
0.0
 11
2.6635045771
 21
0.5768192144
 31
0.0
  0
LINE
  5
58
330
1F
100
AcDbEntity
  8
0
  6
Continuous
 62
     7
100
AcDbLine
 10
2.6635045771
 20
0.5768192144
 30
0.0
 11
2.6635045771
 21
0.6202037644
 31
0.0
  0
LINE
  5
59
330
1F
100
AcDbEntity
  8
0
  6
Continuous
 62
     7
100
AcDbLine
 10
2.6635045771
 20
0.6202037644
 30
0.0
 11
2.6635045771
 21
0.6635883144
 31
0.0
  0
LINE
  5
5A
330
1F
100
AcDbEntity
  8
0
  6
Continuous
 62
     7
100
AcDbLine
 10
2.6635045771
 20
0.6635883144
 30
0.0
 11
2.6682906771
 21
0.6644058894
 31
0.0
  0
LINE
  5
5B
330
1F
100
AcDbEntity
  8
0
  6
Continuous
 62
     7
100
AcDbLine
 10
2.7151498521
 20
0.6644053394
 30
0.0
 11
2.7199392521
 21
0.6635872144
 31
0.0
  0
LINE
  5
5C
330
1F
100
AcDbEntity
  8
0
  6
Continuous
 62
     7
100
AcDbLine
 10
2.7199392521
 20
0.6635872144
 30
0.0
 11
2.7196843271
 21
0.5178212644
 31
0.0
  0
LINE
  5
5D
330
1F
100
AcDbEntity
  8
0
  6
Continuous
 62
     7
100
AcDbLine
 10
2.7196843271
 20
0.5178212644
 30
0.0
 11
2.7194288521
 21
0.3720553144
 31
0.0
  0
LINE
  5
5E
330
1F
100
AcDbEntity
  8
0
  6
Continuous
 62
     7
100
AcDbLine
 10
2.7194288521
 20
0.3720553144
 30
0.0
 11
2.7103599021
 21
0.3697106644
 31
0.0
  0
LINE
  5
5F
330
1F
100
AcDbEntity
  8
0
  6
Continuous
 62
     7
100
AcDbLine
 10
2.6592297021
 20
0.4098411394
 30
0.0
 11
2.6635199771
 21
0.4110417894
 31
0.0
  0
LINE
  5
60
330
1F
100
AcDbEntity
  8
0
  6
Continuous
 62
     7
100
AcDbLine
 10
2.6635199771
 20
0.4110417894
 30
0.0
 11
2.6632603771
 21
0.4721239644
 31
0.0
  0
LINE
  5
61
330
1F
100
AcDbEntity
  8
0
  6
Continuous
 62
     7
100
AcDbLine
 10
2.6632603771
 20
0.4721239644
 30
0.0
 11
2.6630005021
 21
0.5332061394
 31
0.0
  0
LINE
  5
62
330
1F
100
AcDbEntity
  8
0
  6
Continuous
 62
     7
100
AcDbLine
 10
2.6630005021
 20
0.5332061394
 30
0.0
 11
2.6564508271
 21
0.5344694894
 31
0.0
  0
LINE
  5
63
330
1F
100
AcDbEntity
  8
0
  6
Continuous
 62
     7
100
AcDbLine
 10
2.7733437021
 20
0.5102785644
 30
0.0
 11
2.7733346271
 21
0.5760082394
 31
0.0
  0
LINE
  5
64
330
1F
100
AcDbEntity
  8
0
  6
Continuous
 62
     7
100
AcDbLine
 10
2.7733346271
 20
0.5760082394
 30
0.0
 11
2.7757015521
 21
0.5766022394
 31
0.0
  0
LINE
  5
65
330
1F
100
AcDbEntity
  8
0
  6
Continuous
 62
     7
100
AcDbLine
 10
2.8273957771
 20
0.5766022394
 30
0.0
 11
2.8297627021
 21
0.5760082394
 31
0.0
  0
LINE
  5
66
330
1F
100
AcDbEntity
  8
0
  6
Continuous
 62
     7
100
AcDbLine
 10
2.8297627021
 20
0.5760082394
 30
0.0
 11
2.8297902021
 21
0.5178358394
 31
0.0
  0
LINE
  5
67
330
1F
100
AcDbEntity
  8
0
  6
Continuous
 62
     7
100
AcDbLine
 10
2.8947573021
 20
0.4094242394
 30
0.0
 11
2.8987879771
 21
0.4103790394
 31
0.0
  0
LINE
  5
68
330
1F
100
AcDbEntity
  8
0
  6
Continuous
 62
     7
100
AcDbLine
 10
2.8987879771
 20
0.4103790394
 30
0.0
 11
2.8990459271
 21
0.4931339644
 31
0.0
  0
LINE
  5
69
330
1F
100
AcDbEntity
  8
0
  6
Continuous
 62
     7
100
AcDbLine
 10
2.8990459271
 20
0.4931339644
 30
0.0
 11
2.8993038771
 21
0.5758891644
 31
0.0
  0
LINE
  5
6A
330
1F
100
AcDbEntity
  8
0
  6
Continuous
 62
     7
100
AcDbLine
 10
2.8993038771
 20
0.5758891644
 30
0.0
 11
2.9025728021
 21
0.5766077394
 31
0.0
  0
LINE
  5
6B
330
1F
100
AcDbEntity
  8
0
  6
Continuous
 62
     7
100
AcDbLine
 10
2.9534530271
 20
0.5766107644
 30
0.0
 11
2.9567280021
 21
0.5758850394
 31
0.0
  0
LINE
  5
6C
330
1F
100
AcDbEntity
  8
0
  6
Continuous
 62
     7
100
AcDbLine
 10
2.9567280021
 20
0.5758850394
 30
0.0
 11
2.9567280021
 21
0.4747749644
 31
0.0
  0
LINE
  5
6D
330
1F
100
AcDbEntity
  8
0
  6
Continuous
 62
     7
100
AcDbLine
 10
2.9567280021
 20
0.4747749644
 30
0.0
 11
2.9567280021
 21
0.3736648894
 31
0.0
  0
LINE
  5
6E
330
1F
100
AcDbEntity
  8
0
  6
Continuous
 62
     7
100
AcDbLine
 10
2.9567280021
 20
0.3736648894
 30
0.0
 11
2.9534530271
 21
0.3726545394
 31
0.0
  0
LINE
  5
6F
330
1F
100
AcDbEntity
  8
0
  6
Continuous
 62
     7
100
AcDbLine
 10
2.8610016021
 20
0.3610355144
 30
0.0
 11
2.8610029771
 21
0.3610368894
 31
0.0
  0
LINE
  5
70
330
1F
100
AcDbEntity
  8
0
  6
Continuous
 62
     7
100
AcDbLine
 10
2.2020105771
 20
0.5383799894
 30
0.0
 11
2.2020015021
 21
0.6644556644
 31
0.0
  0
LINE
  5
71
330
1F
100
AcDbEntity
  8
0
  6
Continuous
 62
     7
100
AcDbLine
 10
2.2020015021
 20
0.6644556644
 30
0.0
 11
2.2057800021
 21
0.6650801894
 31
0.0
  0
LINE
  5
72
330
1F
100
AcDbEntity
  8
0
  6
Continuous
 62
     7
100
AcDbLine
 10
2.2374943771
 20
0.6650834894
 30
0.0
 11
2.2412467521
 21
0.6644630894
 31
0.0
  0
LINE
  5
73
330
1F
100
AcDbEntity
  8
0
  6
Continuous
 62
     7
100
AcDbLine
 10
2.2412467521
 20
0.6644630894
 30
0.0
 11
2.2415250521
 21
0.5393906144
 31
0.0
  0
LINE
  5
74
330
1F
100
AcDbEntity
  8
0
  6
Continuous
 62
     7
100
AcDbLine
 10
2.2415250521
 20
0.5393906144
 30
0.0
 11
2.2418033521
 21
0.4143184144
 31
0.0
  0
LINE
  5
75
330
1F
100
AcDbEntity
  8
0
  6
Continuous
 62
     7
100
AcDbLine
 10
2.2418033521
 20
0.4143184144
 30
0.0
 11
2.2440734771
 21
0.4087100644
 31
0.0
  0
LINE
  5
76
330
1F
100
AcDbEntity
  8
0
  6
Continuous
 62
     7
100
AcDbLine
 10
2.2777774771
 20
0.3954261894
 30
0.0
 11
2.2835225021
 21
0.3963639394
 31
0.0
  0
LINE
  5
77
330
1F
100
AcDbEntity
  8
0
  6
Continuous
 62
     7
100
AcDbLine
 10
2.2835225021
 20
0.3963639394
 30
0.0
 11
2.2846623771
 21
0.3912340894
 31
0.0
  0
LINE
  5
78
330
1F
100
AcDbEntity
  8
0
  6
Continuous
 62
     7
100
AcDbLine
 10
2.2458651021
 20
0.3635470894
 30
0.0
 11
2.2458664771
 21
0.3635476394
 31
0.0
  0
LINE
  5
79
330
1F
100
AcDbEntity
  8
0
  6
Continuous
 62
     7
100
AcDbLine
 10
0.8469717271
 20
0.3650070644
 30
0.0
 11
0.8426891521
 21
0.3655721894
 31
0.0
  0
LINE
  5
7A
330
1F
100
AcDbEntity
  8
0
  6
Continuous
 62
     7
100
AcDbLine
 10
0.8426891521
 20
0.3655721894
 30
0.0
 11
0.8426891521
 21
0.4701651394
 31
0.0
  0
LINE
  5
7B
330
1F
100
AcDbEntity
  8
0
  6
Continuous
 62
     7
100
AcDbLine
 10
0.8426891521
 20
0.4701651394
 30
0.0
 11
0.8426891521
 21
0.5747583644
 31
0.0
  0
LINE
  5
7C
330
1F
100
AcDbEntity
  8
0
  6
Continuous
 62
     7
100
AcDbLine
 10
0.8426891521
 20
0.5747583644
 30
0.0
 11
0.8479793271
 21
0.5753936144
 31
0.0
  0
LINE
  5
7D
330
1F
100
AcDbEntity
  8
0
  6
Continuous
 62
     7
100
AcDbLine
 10
0.8715619521
 20
0.5754059894
 30
0.0
 11
0.8767550521
 21
0.5747820144
 31
0.0
  0
LINE
  5
7E
330
1F
100
AcDbEntity
  8
0
  6
Continuous
 62
     7
100
AcDbLine
 10
0.8767550521
 20
0.5747820144
 30
0.0
 11
0.8779639521
 21
0.5665977394
 31
0.0
  0
LINE
  5
7F
330
1F
100
AcDbEntity
  8
0
  6
Continuous
 62
     7
100
AcDbLine
 10
0.8798246021
 20
0.5494649644
 30
0.0
 11
0.8804758021
 21
0.5405164644
 31
0.0
  0
LINE
  5
80
330
1F
100
AcDbEntity
  8
0
  6
Continuous
 62
     7
100
AcDbLine
 10
0.8804758021
 20
0.5405164644
 30
0.0
 11
0.8844063771
 21
0.5462323394
 31
0.0
  0
LINE
  5
81
330
1F
100
AcDbEntity
  8
0
  6
Continuous
 62
     7
100
AcDbLine
 10
1.0167278521
 20
0.4428766144
 30
0.0
 11
1.0171046021
 21
0.3656299394
 31
0.0
  0
LINE
  5
82
330
1F
100
AcDbEntity
  8
0
  6
Continuous
 62
     7
100
AcDbLine
 10
1.0171046021
 20
0.3656299394
 30
0.0
 11
1.0137834271
 21
0.3648838644
 31
0.0
  0
LINE
  5
83
330
1F
100
AcDbEntity
  8
0
  6
Continuous
 62
     7
100
AcDbLine
 10
0.9810559521
 20
0.3648593894
 30
0.0
 11
0.9778486271
 21
0.3655804394
 31
0.0
  0
LINE
  5
84
330
1F
100
AcDbEntity
  8
0
  6
Continuous
 62
     7
100
AcDbLine
 10
0.9778486271
 20
0.3655804394
 30
0.0
 11
0.9774265021
 21
0.4352945894
 31
0.0
  0
LINE
  5
85
330
1F
100
AcDbEntity
  8
0
  6
Continuous
 62
     7
100
AcDbLine
 10
0.8830300021
 20
0.4252331644
 30
0.0
 11
0.8829950771
 21
0.3656104144
 31
0.0
  0
LINE
  5
86
330
1F
100
AcDbEntity
  8
0
  6
Continuous
 62
     7
100
AcDbLine
 10
0.8829950771
 20
0.3656104144
 30
0.0
 11
0.8802239021
 21
0.3650791144
 31
0.0
  0
LINE
  5
87
330
1F
100
AcDbEntity
  8
0
  6
Continuous
 62
     7
100
AcDbLine
 10
0.8552847021
 20
0.3640654644
 30
0.0
 11
0.8552847021
 21
0.3640640894
 31
0.0
  0
LINE
  5
88
330
1F
100
AcDbEntity
  8
0
  6
Continuous
 62
     7
100
AcDbLine
 10
1.2933586021
 20
0.3650070644
 30
0.0
 11
1.2890760271
 21
0.3655721894
 31
0.0
  0
LINE
  5
89
330
1F
100
AcDbEntity
  8
0
  6
Continuous
 62
     7
100
AcDbLine
 10
1.2890760271
 20
0.3655721894
 30
0.0
 11
1.2890760271
 21
0.4701651394
 31
0.0
  0
LINE
  5
8A
330
1F
100
AcDbEntity
  8
0
  6
Continuous
 62
     7
100
AcDbLine
 10
1.2890760271
 20
0.4701651394
 30
0.0
 11
1.2890760271
 21
0.5747583644
 31
0.0
  0
LINE
  5
8B
330
1F
100
AcDbEntity
  8
0
  6
Continuous
 62
     7
100
AcDbLine
 10
1.2890760271
 20
0.5747583644
 30
0.0
 11
1.2943662021
 21
0.5753936144
 31
0.0
  0
LINE
  5
8C
330
1F
100
AcDbEntity
  8
0
  6
Continuous
 62
     7
100
AcDbLine
 10
1.3185747271
 20
0.5754180894
 30
0.0
 11
1.3231633771
 21
0.5747891644
 31
0.0
  0
LINE
  5
8D
330
1F
100
AcDbEntity
  8
0
  6
Continuous
 62
     7
100
AcDbLine
 10
1.3231633771
 20
0.5747891644
 30
0.0
 11
1.3244050021
 21
0.5660975144
 31
0.0
  0
LINE
  5
8E
330
1F
100
AcDbEntity
  8
0
  6
Continuous
 62
     7
100
AcDbLine
 10
1.3262546521
 20
0.5493445144
 30
0.0
 11
1.3268626771
 21
0.5412834394
 31
0.0
  0
LINE
  5
8F
330
1F
100
AcDbEntity
  8
0
  6
Continuous
 62
     7
100
AcDbLine
 10
1.3268626771
 20
0.5412834394
 30
0.0
 11
1.3303018271
 21
0.5462378394
 31
0.0
  0
LINE
  5
90
330
1F
100
AcDbEntity
  8
0
  6
Continuous
 62
     7
100
AcDbLine
 10
1.3985903771
 20
0.5456872894
 30
0.0
 11
1.3977673021
 21
0.5390069894
 31
0.0
  0
LINE
  5
91
330
1F
100
AcDbEntity
  8
0
  6
Continuous
 62
     7
100
AcDbLine
 10
1.3977673021
 20
0.5390069894
 30
0.0
 11
1.3913820771
 21
0.5395195894
 31
0.0
  0
LINE
  5
92
330
1F
100
AcDbEntity
  8
0
  6
Continuous
 62
     7
100
AcDbLine
 10
1.3296187271
 20
0.4282444144
 30
0.0
 11
1.3292835021
 21
0.3655875894
 31
0.0
  0
LINE
  5
93
330
1F
100
AcDbEntity
  8
0
  6
Continuous
 62
     7
100
AcDbLine
 10
1.3292835021
 20
0.3655875894
 30
0.0
 11
1.3265615521
 21
0.3650672894
 31
0.0
  0
LINE
  5
94
330
1F
100
AcDbEntity
  8
0
  6
Continuous
 62
     7
100
AcDbLine
 10
1.4513568271
 20
0.5756097644
 30
0.0
 11
1.4599714771
 21
0.5748917394
 31
0.0
  0
LINE
  5
95
330
1F
100
AcDbEntity
  8
0
  6
Continuous
 62
     7
100
AcDbLine
 10
1.4599714771
 20
0.5748917394
 30
0.0
 11
1.4799799271
 21
0.4905750894
 31
0.0
  0
LINE
  5
96
330
1F
100
AcDbEntity
  8
0
  6
Continuous
 62
     7
100
AcDbLine
 10
1.5243198271
 20
0.4892792894
 30
0.0
 11
1.5473318271
 21
0.5748950394
 31
0.0
  0
LINE
  5
97
330
1F
100
AcDbEntity
  8
0
  6
Continuous
 62
     7
100
AcDbLine
 10
1.5473318271
 20
0.5748950394
 30
0.0
 11
1.5548599521
 21
0.5756004144
 31
0.0
  0
LINE
  5
98
330
1F
100
AcDbEntity
  8
0
  6
Continuous
 62
     7
100
AcDbLine
 10
1.7598985771
 20
0.3650070644
 30
0.0
 11
1.7556160021
 21
0.3655721894
 31
0.0
  0
LINE
  5
99
330
1F
100
AcDbEntity
  8
0
  6
Continuous
 62
     7
100
AcDbLine
 10
1.7556160021
 20
0.3655721894
 30
0.0
 11
1.7556160021
 21
0.5150140644
 31
0.0
  0
LINE
  5
9A
330
1F
100
AcDbEntity
  8
0
  6
Continuous
 62
     7
100
AcDbLine
 10
1.7556160021
 20
0.5150140644
 30
0.0
 11
1.7556160021
 21
0.6644556644
 31
0.0
  0
LINE
  5
9B
330
1F
100
AcDbEntity
  8
0
  6
Continuous
 62
     7
100
AcDbLine
 10
1.7556160021
 20
0.6644556644
 30
0.0
 11
1.7593945021
 21
0.6650801894
 31
0.0
  0
LINE
  5
9C
330
1F
100
AcDbEntity
  8
0
  6
Continuous
 62
     7
100
AcDbLine
 10
1.7921431521
 20
0.6650801894
 30
0.0
 11
1.7959216521
 21
0.6644556644
 31
0.0
  0
LINE
  5
9D
330
1F
100
AcDbEntity
  8
0
  6
Continuous
 62
     7
100
AcDbLine
 10
1.7959216521
 20
0.6644556644
 30
0.0
 11
1.7959216521
 21
0.6035142894
 31
0.0
  0
LINE
  5
9E
330
1F
100
AcDbEntity
  8
0
  6
Continuous
 62
     7
100
AcDbLine
 10
1.7959216521
 20
0.6035142894
 30
0.0
 11
1.7959216521
 21
0.5425726394
 31
0.0
  0
LINE
  5
9F
330
1F
100
AcDbEntity
  8
0
  6
Continuous
 62
     7
100
AcDbLine
 10
1.7959216521
 20
0.5425726394
 30
0.0
 11
1.8004517271
 21
0.5487263144
 31
0.0
  0
LINE
  5
A0
330
1F
100
AcDbEntity
  8
0
  6
Continuous
 62
     7
100
AcDbLine
 10
1.9299385021
 20
0.4385101644
 30
0.0
 11
1.9299385021
 21
0.3656087644
 31
0.0
  0
LINE
  5
A1
330
1F
100
AcDbEntity
  8
0
  6
Continuous
 62
     7
100
AcDbLine
 10
1.9299385021
 20
0.3656087644
 30
0.0
 11
1.9266638021
 21
0.3648728644
 31
0.0
  0
LINE
  5
A2
330
1F
100
AcDbEntity
  8
0
  6
Continuous
 62
     7
100
AcDbLine
 10
1.8939151521
 20
0.3648728644
 30
0.0
 11
1.8906404521
 21
0.3656087644
 31
0.0
  0
LINE
  5
A3
330
1F
100
AcDbEntity
  8
0
  6
Continuous
 62
     7
100
AcDbLine
 10
1.8906404521
 20
0.3656087644
 30
0.0
 11
1.8906052521
 21
0.4327890644
 31
0.0
  0
LINE
  5
A4
330
1F
100
AcDbEntity
  8
0
  6
Continuous
 62
     7
100
AcDbLine
 10
1.7961595271
 20
0.4287462894
 30
0.0
 11
1.7958113771
 21
0.3655845644
 31
0.0
  0
LINE
  5
A5
330
1F
100
AcDbEntity
  8
0
  6
Continuous
 62
     7
100
AcDbLine
 10
1.7958113771
 20
0.3655845644
 30
0.0
 11
1.7930954771
 21
0.3650656394
 31
0.0
  0
LINE
  5
A6
330
1F
100
AcDbEntity
  8
0
  6
Continuous
 62
     7
100
AcDbLine
 10
2.3209049021
 20
0.5120611144
 30
0.0
 11
2.3209049021
 21
0.6586735144
 31
0.0
  0
LINE
  5
A7
330
1F
100
AcDbEntity
  8
0
  6
Continuous
 62
     7
100
AcDbLine
 10
2.3209049021
 20
0.6586735144
 30
0.0
 11
2.4035127021
 21
0.6586735144
 31
0.0
  0
LINE
  5
A8
330
1F
100
AcDbEntity
  8
0
  6
Continuous
 62
     7
100
AcDbLine
 10
2.4035127021
 20
0.6586735144
 30
0.0
 11
2.4861205021
 21
0.6586735144
 31
0.0
  0
LINE
  5
A9
330
1F
100
AcDbEntity
  8
0
  6
Continuous
 62
     7
100
AcDbLine
 10
2.4861205021
 20
0.6586735144
 30
0.0
 11
2.4868954521
 21
0.6559026144
 31
0.0
  0
LINE
  5
AA
330
1F
100
AcDbEntity
  8
0
  6
Continuous
 62
     7
100
AcDbLine
 10
2.4868679521
 20
0.6120698144
 30
0.0
 11
2.4860666021
 21
0.6082913144
 31
0.0
  0
LINE
  5
AB
330
1F
100
AcDbEntity
  8
0
  6
Continuous
 62
     7
100
AcDbLine
 10
2.4860666021
 20
0.6082913144
 30
0.0
 11
2.4326926771
 21
0.6082913144
 31
0.0
  0
LINE
  5
AC
330
1F
100
AcDbEntity
  8
0
  6
Continuous
 62
     7
100
AcDbLine
 10
2.4326926771
 20
0.6082913144
 30
0.0
 11
2.3793190271
 21
0.6082913144
 31
0.0
  0
LINE
  5
AD
330
1F
100
AcDbEntity
  8
0
  6
Continuous
 62
     7
100
AcDbLine
 10
2.3793190271
 20
0.6082913144
 30
0.0
 11
2.3795852271
 21
0.5762986394
 31
0.0
  0
LINE
  5
AE
330
1F
100
AcDbEntity
  8
0
  6
Continuous
 62
     7
100
AcDbLine
 10
2.3795852271
 20
0.5762986394
 30
0.0
 11
2.3798514271
 21
0.5443056894
 31
0.0
  0
LINE
  5
AF
330
1F
100
AcDbEntity
  8
0
  6
Continuous
 62
     7
100
AcDbLine
 10
2.3798514271
 20
0.5443056894
 30
0.0
 11
2.4216297021
 21
0.5440425144
 31
0.0
  0
LINE
  5
B0
330
1F
100
AcDbEntity
  8
0
  6
Continuous
 62
     7
100
AcDbLine
 10
2.4215606771
 20
0.4934196894
 30
0.0
 11
2.3793476271
 21
0.4934196894
 31
0.0
  0
LINE
  5
B1
330
1F
100
AcDbEntity
  8
0
  6
Continuous
 62
     7
100
AcDbLine
 10
2.3793476271
 20
0.4934196894
 30
0.0
 11
2.3793476271
 21
0.4546251644
 31
0.0
  0
LINE
  5
B2
330
1F
100
AcDbEntity
  8
0
  6
Continuous
 62
     7
100
AcDbLine
 10
2.3793476271
 20
0.4546251644
 30
0.0
 11
2.3793476271
 21
0.4158309144
 31
0.0
  0
LINE
  5
B3
330
1F
100
AcDbEntity
  8
0
  6
Continuous
 62
     7
100
AcDbLine
 10
2.3793476271
 20
0.4158309144
 30
0.0
 11
2.4342024271
 21
0.4158309144
 31
0.0
  0
LINE
  5
B4
330
1F
100
AcDbEntity
  8
0
  6
Continuous
 62
     7
100
AcDbLine
 10
2.4342024271
 20
0.4158309144
 30
0.0
 11
2.4890575021
 21
0.4158309144
 31
0.0
  0
LINE
  5
B5
330
1F
100
AcDbEntity
  8
0
  6
Continuous
 62
     7
100
AcDbLine
 10
2.4890575021
 20
0.4158309144
 30
0.0
 11
2.4898748021
 21
0.4110445394
 31
0.0
  0
LINE
  5
B6
330
1F
100
AcDbEntity
  8
0
  6
Continuous
 62
     7
100
AcDbLine
 10
2.4898902021
 20
0.3692272144
 30
0.0
 11
2.4890907771
 21
0.3654487144
 31
0.0
  0
LINE
  5
B7
330
1F
100
AcDbEntity
  8
0
  6
Continuous
 62
     7
100
AcDbLine
 10
2.4890907771
 20
0.3654487144
 30
0.0
 11
2.4049979771
 21
0.3654487144
 31
0.0
  0
LINE
  5
B8
330
1F
100
AcDbEntity
  8
0
  6
Continuous
 62
     7
100
AcDbLine
 10
2.4049979771
 20
0.3654487144
 30
0.0
 11
2.3209054521
 21
0.3654487144
 31
0.0
  0
LINE
  5
B9
330
1F
100
AcDbEntity
  8
0
  6
Continuous
 62
     7
100
AcDbLine
 10
2.3209054521
 20
0.3654487144
 30
0.0
 11
2.3209054521
 21
0.5120611144
 31
0.0
  0
LINE
  5
BA
330
1F
100
AcDbEntity
  8
0
  6
Continuous
 62
     7
100
AcDbLine
 10
1.9727634271
 20
0.6957237144
 30
0.0
 11
1.9667175521
 21
0.6961103644
 31
0.0
  0
LINE
  5
BB
330
1F
100
AcDbEntity
  8
0
  6
Continuous
 62
     7
100
AcDbLine
 10
1.9667175521
 20
0.6961103644
 30
0.0
 11
1.9631909521
 21
0.7031278144
 31
0.0
  0
LINE
  5
BC
330
1F
100
AcDbEntity
  8
0
  6
Continuous
 62
     7
100
AcDbLine
 10
1.5598710021
 20
0.7070446394
 30
0.0
 11
1.5530595271
 21
0.7070416144
 31
0.0
  0
LINE
  5
BD
330
1F
100
AcDbEntity
  8
0
  6
Continuous
 62
     7
100
AcDbLine
 10
1.5530595271
 20
0.7070416144
 30
0.0
 11
1.5563477021
 21
0.7115725144
 31
0.0
  0
LINE
  5
BE
330
1F
100
AcDbEntity
  8
0
  6
Continuous
 62
     7
100
AcDbLine
 10
1.5563477021
 20
0.7115725144
 30
0.0
 11
1.5596358771
 21
0.7161034144
 31
0.0
  0
LINE
  5
BF
330
1F
100
AcDbEntity
  8
0
  6
Continuous
 62
     7
100
AcDbLine
 10
1.5596358771
 20
0.7161034144
 30
0.0
 11
1.5524902771
 21
0.7306561394
 31
0.0
  0
LINE
  5
C0
330
1F
100
AcDbEntity
  8
0
  6
Continuous
 62
     7
100
AcDbLine
 10
1.5901265021
 20
1.3099337394
 30
0.0
 11
1.6155538271
 21
1.3309107394
 31
0.0
  0
LINE
  5
C1
330
1F
100
AcDbEntity
  8
0
  6
Continuous
 62
     7
100
AcDbLine
 10
1.6155538271
 20
1.3309107394
 30
0.0
 11
1.6188285271
 21
1.3286067894
 31
0.0
  0
LINE
  5
C2
330
1F
100
AcDbEntity
  8
0
  6
Continuous
 62
     7
100
AcDbLine
 10
2.0630437271
 20
1.2618114894
 30
0.0
 11
2.0768215021
 21
1.2555277394
 31
0.0
  0
LINE
  5
C3
330
1F
100
AcDbEntity
  8
0
  6
Continuous
 62
     7
100
AcDbLine
 10
2.0768215021
 20
1.2555277394
 30
0.0
 11
2.1265646021
 21
1.2897352644
 31
0.0
  0
LINE
  5
C4
330
1F
100
AcDbEntity
  8
0
  6
Continuous
 62
     7
100
AcDbLine
 10
2.1830028521
 20
1.3284426144
 30
0.0
 11
2.1896974521
 21
1.3329429894
 31
0.0
  0
LINE
  5
C5
330
1F
100
AcDbEntity
  8
0
  6
Continuous
 62
     7
100
AcDbLine
 10
2.1896974521
 20
1.3329429894
 30
0.0
 11
2.2142346021
 21
1.3129650644
 31
0.0
  0
LINE
  5
C6
330
1F
100
AcDbEntity
  8
0
  6
Continuous
 62
     7
100
AcDbLine
 10
2.3086729021
 20
1.2197381394
 30
0.0
 11
2.3240448521
 21
1.2019093394
 31
0.0
  0
LINE
  5
C7
330
1F
100
AcDbEntity
  8
0
  6
Continuous
 62
     7
100
AcDbLine
 10
2.3240448521
 20
1.2019093394
 30
0.0
 11
2.2885376771
 21
1.1532335144
 31
0.0
  0
LINE
  5
C8
330
1F
100
AcDbEntity
  8
0
  6
Continuous
 62
     7
100
AcDbLine
 10
2.2495985021
 20
1.0997825894
 30
0.0
 11
2.2461667771
 21
1.0950077644
 31
0.0
  0
LINE
  5
C9
330
1F
100
AcDbEntity
  8
0
  6
Continuous
 62
     7
100
AcDbLine
 10
2.2461667771
 20
1.0950077644
 30
0.0
 11
2.2548083771
 21
1.0776145644
 31
0.0
  0
LINE
  5
CA
330
1F
100
AcDbEntity
  8
0
  6
Continuous
 62
     7
100
AcDbLine
 10
1.9727634271
 20
0.6957248144
 30
0.0
 11
1.9727634271
 21
0.6957237144
 31
0.0
  0
LINE
  5
CB
330
1F
100
AcDbEntity
  8
0
  6
Continuous
 62
     7
100
AcDbLine
 10
2.1153446021
 20
1.0844056894
 30
0.0
 11
2.1093039521
 21
1.0983410394
 31
0.0
  0
LINE
  5
CC
330
1F
100
AcDbEntity
  8
0
  6
Continuous
 62
     7
100
AcDbLine
 10
2.1093039521
 20
1.0983410394
 30
0.0
 11
2.1119863021
 21
1.1029604894
 31
0.0
  0
LINE
  5
CD
330
1F
100
AcDbEntity
  8
0
  6
Continuous
 62
     7
100
AcDbLine
 10
2.2549057271
 20
1.2544615644
 30
0.0
 11
2.2524516271
 21
1.2572500644
 31
0.0
  0
LINE
  5
CE
330
1F
100
AcDbEntity
  8
0
  6
Continuous
 62
     7
100
AcDbLine
 10
2.2524516271
 20
1.2572500644
 30
0.0
 11
2.2174026021
 21
1.2379428644
 31
0.0
  0
LINE
  5
CF
330
1F
100
AcDbEntity
  8
0
  6
Continuous
 62
     7
100
AcDbLine
 10
2.0692892521
 20
1.1604833394
 30
0.0
 11
2.0640425271
 21
1.1582550144
 31
0.0
  0
LINE
  5
D0
330
1F
100
AcDbEntity
  8
0
  6
Continuous
 62
     7
100
AcDbLine
 10
2.0640425271
 20
1.1582550144
 30
0.0
 11
2.0556858271
 21
1.1628068144
 31
0.0
  0
LINE
  5
D1
330
1F
100
AcDbEntity
  8
0
  6
Continuous
 62
     7
100
AcDbLine
 10
1.5487093021
 20
1.0030953394
 30
0.0
 11
1.5397077271
 21
1.0008879144
 31
0.0
  0
LINE
  5
D2
330
1F
100
AcDbEntity
  8
0
  6
Continuous
 62
     7
100
AcDbLine
 10
1.5397077271
 20
1.0008879144
 30
0.0
 11
1.5403655271
 21
0.9907142894
 31
0.0
  0
LWPOLYLINE
  5
D3
330
1F
100
AcDbEntity
  8
0
  6
Continuous
 62
     7
100
AcDbPolyline
 90
        3
 70
   128
 43
0.0
 10
1.1333949521
 20
0.3614788144
 10
1.0976642582
 20
0.3707734462
 10
1.0791886021
 20
0.3851807894
  0
LWPOLYLINE
  5
D4
330
1F
100
AcDbEntity
  8
0
  6
Continuous
 62
     7
100
AcDbPolyline
 90
        3
 70
   128
 43
0.0
 10
1.0791886021
 20
0.3851807894
 10
1.0682660843
 20
0.4057701456
 10
1.0659338771
 20
0.4264112644
  0
LWPOLYLINE
  5
D5
330
1F
100
AcDbEntity
  8
0
  6
Continuous
 62
     7
100
AcDbPolyline
 90
        3
 70
   128
 43
0.0
 10
1.0659338771
 20
0.4264112644
 10
1.066375861
 20
0.4377471472
 10
1.0672472771
 20
0.4440450894
  0
LWPOLYLINE
  5
D6
330
1F
100
AcDbEntity
  8
0
  6
Continuous
 62
     7
100
AcDbPolyline
 90
        3
 70
   128
 43
0.0
 10
1.0672472771
 20
0.4440450894
 10
1.0734671259
 20
0.4592198036
 10
1.0806367521
 20
0.4696090894
  0
LWPOLYLINE
  5
D7
330
1F
100
AcDbEntity
  8
0
  6
Continuous
 62
     7
100
AcDbPolyline
 90
        3
 70
   128
 43
0.0
 10
1.0806367521
 20
0.4696090894
 10
1.1198926193
 20
0.4927989157
 10
1.1638982271
 20
0.4970554644
  0
LWPOLYLINE
  5
D8
330
1F
100
AcDbEntity
  8
0
  6
Continuous
 62
     7
100
AcDbPolyline
 90
        3
 70
   128
 43
0.0
 10
1.1638982271
 20
0.4970554644
 10
1.1781818917
 20
0.4963194644
 10
1.1849475521
 20
0.4957602144
  0
LWPOLYLINE
  5
D9
330
1F
100
AcDbEntity
  8
0
  6
Continuous
 62
     7
100
AcDbPolyline
 90
        3
 70
   128
 43
0.0
 10
1.1888610771
 20
0.5055568144
 10
1.1794324059
 20
0.5340118115
 10
1.1598301521
 20
0.5445243144
  0
LWPOLYLINE
  5
DA
330
1F
100
AcDbEntity
  8
0
  6
Continuous
 62
     7
100
AcDbPolyline
 90
        3
 70
   128
 43
0.0
 10
1.1598301521
 20
0.5445243144
 10
1.1281212478
 20
0.5456828761
 10
1.0982727771
 20
0.5405926394
  0
LWPOLYLINE
  5
DB
330
1F
100
AcDbEntity
  8
0
  6
Continuous
 62
     7
100
AcDbPolyline
 90
        5
 70
   128
 43
0.0
 10
1.0982727771
 20
0.5405926394
 10
1.0922134471
 20
0.5391739297
 10
1.0897893209
 20
0.5397762859
 10
1.0880989907
 20
0.5425799901
 10
1.0864959021
 20
0.5467394394
  0
ARC
  5
DC
330
1F
100
AcDbEntity
  8
0
  6
Continuous
 62
     7
100
AcDbCircle
 10
1.129792923
 20
0.5654714223
 30
0.0
 40
0.0471754088570671
100
AcDbArc
 50
175.4432840739
 51
203.3951946248
  0
ARC
  5
DD
330
1F
100
AcDbEntity
  8
0
  6
Continuous
 62
     7
100
AcDbCircle
 10
1.1119139386
 20
0.5156557432
 30
0.0
 40
0.0609805045206798
100
AcDbArc
 50
91.5926787488
 51
118.5533950886
  0
LWPOLYLINE
  5
DE
330
1F
100
AcDbEntity
  8
0
  6
Continuous
 62
     7
100
AcDbPolyline
 90
        3
 70
   128
 43
0.0
 10
1.1102190521
 20
0.5766126894
 10
1.1438984391
 20
0.578891696
 10
1.1678513521
 20
0.5776824394
  0
LWPOLYLINE
  5
DF
330
1F
100
AcDbEntity
  8
0
  6
Continuous
 62
     7
100
AcDbPolyline
 90
        3
 70
   128
 43
0.0
 10
1.1678513521
 20
0.5776824394
 10
1.1958445136
 20
0.568160782
 10
1.2115059521
 20
0.5560872394
  0
LWPOLYLINE
  5
E0
330
1F
100
AcDbEntity
  8
0
  6
Continuous
 62
     7
100
AcDbPolyline
 90
        3
 70
   128
 43
0.0
 10
1.2115059521
 20
0.5560872394
 10
1.2200857262
 20
0.5419537709
 10
1.2252045271
 20
0.5286873394
  0
ARC
  5
E1
330
1F
100
AcDbEntity
  8
0
  6
Continuous
 62
     7
100
AcDbCircle
 10
0.5799875146
 20
0.4706093638
 30
0.0
 40
0.6478256280775844
100
AcDbArc
 50
357.8587536079
 51
5.1435084099
  0
LWPOLYLINE
  5
E2
330
1F
100
AcDbEntity
  8
0
  6
Continuous
 62
     7
100
AcDbPolyline
 90
        3
 70
   128
 43
0.0
 10
1.2223613021
 20
0.3695189894
 10
1.1681921007
 20
0.3613851463
 10
1.1333949521
 20
0.3614788144
  0
LWPOLYLINE
  5
E3
330
1F
100
AcDbEntity
  8
0
  6
Continuous
 62
     7
100
AcDbPolyline
 90
        3
 70
   128
 43
0.0
 10
1.1787388771
 20
0.3946427144
 10
1.1842104335
 20
0.3958338482
 10
1.1870658771
 20
0.3967013644
  0
ARC
  5
E4
330
1F
100
AcDbEntity
  8
0
  6
Continuous
 62
     7
100
AcDbCircle
 10
1.1610001217
 20
0.2404376566
 30
0.0
 40
0.2252949437063811
100
AcDbArc
 50
84.0688288453
 51
96.3931052874
  0
LWPOLYLINE
  5
E5
330
1F
100
AcDbEntity
  8
0
  6
Continuous
 62
     7
100
AcDbPolyline
 90
        3
 70
   128
 43
0.0
 10
1.1359136771
 20
0.4643315644
 10
1.1113828966
 20
0.4493589272
 10
1.1056843021
 20
0.4279226644
  0
LWPOLYLINE
  5
E6
330
1F
100
AcDbEntity
  8
0
  6
Continuous
 62
     7
100
AcDbPolyline
 90
        3
 70
   128
 43
0.0
 10
1.1056843021
 20
0.4279226644
 10
1.108171405
 20
0.4123806606
 10
1.1144889771
 20
0.4035084394
  0
LWPOLYLINE
  5
E7
330
1F
100
AcDbEntity
  8
0
  6
Continuous
 62
     7
100
AcDbPolyline
 90
        3
 70
   128
 43
0.0
 10
1.1144889771
 20
0.4035084394
 10
1.1249867599
 20
0.3963894427
 10
1.1351997771
 20
0.3936535394
  0
LWPOLYLINE
  5
E8
330
1F
100
AcDbEntity
  8
0
  6
Continuous
 62
     7
100
AcDbPolyline
 90
        3
 70
   128
 43
0.0
 10
1.1351997771
 20
0.3936535394
 10
1.1600643253
 20
0.3932695927
 10
1.1787386021
 20
0.3946424394
  0
LWPOLYLINE
  5
E9
330
1F
100
AcDbEntity
  8
0
  6
Continuous
 62
     7
100
AcDbPolyline
 90
        3
 70
   128
 43
0.0
 10
2.0458328521
 20
0.3615703894
 10
1.9981486954
 20
0.3797206993
 10
1.9808256021
 20
0.4101172394
  0
LWPOLYLINE
  5
EA
330
1F
100
AcDbEntity
  8
0
  6
Continuous
 62
     7
100
AcDbPolyline
 90
        3
 70
   128
 43
0.0
 10
1.9808256021
 20
0.4101172394
 10
1.9795642043
 20
0.4328465732
 10
1.9822666021
 20
0.4490833644
  0
LWPOLYLINE
  5
EB
330
1F
100
AcDbEntity
  8
0
  6
Continuous
 62
     7
100
AcDbPolyline
 90
        3
 70
   128
 43
0.0
 10
1.9822666021
 20
0.4490833644
 10
2.0217619455
 20
0.4888074907
 10
2.0777452271
 20
0.4970615144
  0
LWPOLYLINE
  5
EC
330
1F
100
AcDbEntity
  8
0
  6
Continuous
 62
     7
100
AcDbPolyline
 90
        3
 70
   128
 43
0.0
 10
2.0777452271
 20
0.4970615144
 10
2.0912215899
 20
0.4963346125
 10
2.0977938271
 20
0.4957712144
  0
LWPOLYLINE
  5
ED
330
1F
100
AcDbEntity
  8
0
  6
Continuous
 62
     7
100
AcDbPolyline
 90
        3
 70
   128
 43
0.0
 10
2.1020038021
 20
0.5066139144
 10
2.0926257291
 20
0.5345548265
 10
2.0720167021
 20
0.5449178394
  0
LWPOLYLINE
  5
EE
330
1F
100
AcDbEntity
  8
0
  6
Continuous
 62
     7
100
AcDbPolyline
 90
        3
 70
   128
 43
0.0
 10
2.0720167021
 20
0.5449178394
 10
2.0414480258
 20
0.5456392735
 10
2.0121030021
 20
0.5406608394
  0
LWPOLYLINE
  5
EF
330
1F
100
AcDbEntity
  8
0
  6
Continuous
 62
     7
100
AcDbPolyline
 90
        4
 70
   128
 43
0.0
 10
2.0121030021
 20
0.5406608394
 10
2.0068275996
 20
0.5394013783
 10
2.0046638229
 20
0.5391718548
 10
2.0028154271
 20
0.5403473394
  0
LWPOLYLINE
  5
F0
330
1F
100
AcDbEntity
  8
0
  6
Continuous
 62
     7
100
AcDbPolyline
 90
        3
 70
   128
 43
0.0
 10
2.0028154271
 20
0.5403473394
 10
1.998559538
 20
0.5517478798
 10
1.9970588521
 20
0.5628690144
  0
LWPOLYLINE
  5
F1
330
1F
100
AcDbEntity
  8
0
  6
Continuous
 62
     7
100
AcDbPolyline
 90
        3
 70
   128
 43
0.0
 10
2.0076711021
 20
0.5732029644
 10
2.0567950463
 20
0.5790475012
 10
2.0903949521
 20
0.5757252644
  0
LWPOLYLINE
  5
F2
330
1F
100
AcDbEntity
  8
0
  6
Continuous
 62
     7
100
AcDbPolyline
 90
        3
 70
   128
 43
0.0
 10
2.0903949521
 20
0.5757252644
 10
2.1281024929
 20
0.5515835488
 10
2.1405142521
 20
0.5166219894
  0
ARC
  5
F3
330
1F
100
AcDbEntity
  8
0
  6
Continuous
 62
     7
100
AcDbCircle
 10
0.68947417
 20
0.4586599489
 30
0.0
 40
1.452197272396728
100
AcDbArc
 50
359.2413030905
 51
2.2874734385
  0
LWPOLYLINE
  5
F4
330
1F
100
AcDbEntity
  8
0
  6
Continuous
 62
     7
100
AcDbPolyline
 90
        3
 70
   128
 43
0.0
 10
2.1337349521
 20
0.3691249144
 10
2.0800510732
 20
0.3611556465
 10
2.0458328521
 20
0.3615703894
  0
LWPOLYLINE
  5
F5
330
1F
100
AcDbEntity
  8
0
  6
Continuous
 62
     7
100
AcDbPolyline
 90
        3
 70
   128
 43
0.0
 10
2.0845437771
 20
0.3937027644
 10
2.093034706
 20
0.3948915404
 10
2.0978950271
 20
0.3958293394
  0
LWPOLYLINE
  5
F6
330
1F
100
AcDbEntity
  8
0
  6
Continuous
 62
     7
100
AcDbPolyline
 90
        3
 70
   128
 43
0.0
 10
2.0979635021
 20
0.4645776894
 10
2.0888380019
 20
0.4652992866
 10
2.0775587771
 20
0.4658470894
  0
LWPOLYLINE
  5
F7
330
1F
100
AcDbEntity
  8
0
  6
Continuous
 62
     7
100
AcDbPolyline
 90
        3
 70
   128
 43
0.0
 10
2.0775587771
 20
0.4658470894
 10
2.0617015501
 20
0.4659471652
 10
2.0529817521
 20
0.4648595644
  0
LWPOLYLINE
  5
F8
330
1F
100
AcDbEntity
  8
0
  6
Continuous
 62
     7
100
AcDbPolyline
 90
        3
 70
   128
 43
0.0
 10
2.0529817521
 20
0.4648595644
 10
2.032201541
 20
0.4567539188
 10
2.0226544771
 20
0.4460844894
  0
LWPOLYLINE
  5
F9
330
1F
100
AcDbEntity
  8
0
  6
Continuous
 62
     7
100
AcDbPolyline
 90
        3
 70
   128
 43
0.0
 10
2.0226544771
 20
0.4460844894
 10
2.0190701175
 20
0.4324637805
 10
2.0194490771
 20
0.4206458894
  0
LWPOLYLINE
  5
FA
330
1F
100
AcDbEntity
  8
0
  6
Continuous
 62
     7
100
AcDbPolyline
 90
        3
 70
   128
 43
0.0
 10
2.0194490771
 20
0.4206458894
 10
2.0306612434
 20
0.4007086768
 10
2.0491301021
 20
0.3936738894
  0
LWPOLYLINE
  5
FB
330
1F
100
AcDbEntity
  8
0
  6
Continuous
 62
     7
100
AcDbPolyline
 90
        3
 70
   128
 43
0.0
 10
2.0491301021
 20
0.3936738894
 10
2.0683613116
 20
0.3928353453
 10
2.0845437771
 20
0.3937044144
  0
LWPOLYLINE
  5
FC
330
1F
100
AcDbEntity
  8
0
  6
Continuous
 62
     7
100
AcDbPolyline
 90
        3
 70
   128
 43
0.0
 10
2.6206796521
 20
0.3610858394
 10
2.5796970378
 20
0.3713055125
 10
2.5548452021
 20
0.3879984394
  0
LWPOLYLINE
  5
FD
330
1F
100
AcDbEntity
  8
0
  6
Continuous
 62
     7
100
AcDbPolyline
 90
        3
 70
   128
 43
0.0
 10
2.5548452021
 20
0.3879984394
 10
2.5302162718
 20
0.4289758339
 10
2.5257944771
 20
0.4727630644
  0
LWPOLYLINE
  5
FE
330
1F
100
AcDbEntity
  8
0
  6
Continuous
 62
     7
100
AcDbPolyline
 90
        3
 70
   128
 43
0.0
 10
2.5257944771
 20
0.4727630644
 10
2.5296524848
 20
0.5027141836
 10
2.5377976771
 20
0.5235657394
  0
LWPOLYLINE
  5
FF
330
1F
100
AcDbEntity
  8
0
  6
Continuous
 62
     7
100
AcDbPolyline
 90
        3
 70
   128
 43
0.0
 10
2.5377976771
 20
0.5235657394
 10
2.5790726538
 20
0.5668396177
 10
2.6262214521
 20
0.5797548394
  0
LWPOLYLINE
  5
100
330
1F
100
AcDbEntity
  8
0
  6
Continuous
 62
     7
100
AcDbPolyline
 90
        3
 70
   128
 43
0.0
 10
2.6262214521
 20
0.5797548394
 10
2.6480314936
 20
0.5792564742
 10
2.6612372021
 20
0.5774429144
  0
ARC
  5
101
330
1F
100
AcDbEntity
  8
0
  6
Continuous
 62
     7
100
AcDbCircle
 10
2.6917164294
 20
0.3376551631
 30
0.0
 40
0.3275893816667294
100
AcDbArc
 50
85.8979625908
 51
94.1006924141
  0
LWPOLYLINE
  5
102
330
1F
100
AcDbEntity
  8
0
  6
Continuous
 62
     7
100
AcDbPolyline
 90
        3
 70
   128
 43
0.0
 10
2.7103599021
 20
0.3697106644
 10
2.658779182
 20
0.3615736245
 10
2.6206793771
 20
0.3610858394
  0
LWPOLYLINE
  5
103
330
1F
100
AcDbEntity
  8
0
  6
Continuous
 62
     7
100
AcDbPolyline
 90
        3
 70
   128
 43
0.0
 10
2.6564508271
 20
0.5344694894
 10
2.6351124587
 20
0.5358510682
 10
2.6210275271
 20
0.5338532144
  0
LWPOLYLINE
  5
104
330
1F
100
AcDbEntity
  8
0
  6
Continuous
 62
     7
100
AcDbPolyline
 90
        3
 70
   128
 43
0.0
 10
2.6210275271
 20
0.5338532144
 10
2.5970866511
 20
0.5157517168
 10
2.5863093271
 20
0.4909006894
  0
LWPOLYLINE
  5
105
330
1F
100
AcDbEntity
  8
0
  6
Continuous
 62
     7
100
AcDbPolyline
 90
        3
 70
   128
 43
0.0
 10
2.5863093271
 20
0.4909006894
 10
2.5844473448
 20
0.4653837979
 10
2.5862744021
 20
0.4465640894
  0
LWPOLYLINE
  5
106
330
1F
100
AcDbEntity
  8
0
  6
Continuous
 62
     7
100
AcDbPolyline
 90
        3
 70
   128
 43
0.0
 10
2.5862744021
 20
0.4465640894
 10
2.6021170636
 20
0.4187204459
 10
2.6245106771
 20
0.4088164894
  0
LWPOLYLINE
  5
107
330
1F
100
AcDbEntity
  8
0
  6
Continuous
 62
     7
100
AcDbPolyline
 90
        3
 70
   128
 43
0.0
 10
2.6245106771
 20
0.4088164894
 10
2.6448504057
 20
0.4083826019
 10
2.6592297021
 20
0.4098411394
  0
LWPOLYLINE
  5
108
330
1F
100
AcDbEntity
  8
0
  6
Continuous
 62
     7
100
AcDbPolyline
 90
        3
 70
   128
 43
0.0
 10
2.8610029771
 20
0.3610368894
 10
2.8402624621
 20
0.3637137938
 10
2.8269824521
 20
0.3666092144
  0
LWPOLYLINE
  5
109
330
1F
100
AcDbEntity
  8
0
  6
Continuous
 62
     7
100
AcDbPolyline
 90
        3
 70
   128
 43
0.0
 10
2.8269824521
 20
0.3666092144
 10
2.7888833803
 20
0.3945112885
 10
2.7748515271
 20
0.4344723394
  0
LWPOLYLINE
  5
10A
330
1F
100
AcDbEntity
  8
0
  6
Continuous
 62
     7
100
AcDbPolyline
 90
        3
 70
   128
 43
0.0
 10
2.7748515271
 20
0.4344723394
 10
2.7735704346
 20
0.4598549242
 10
2.7733437021
 20
0.5102785644
  0
ARC
  5
10B
330
1F
100
AcDbEntity
  8
0
  6
Continuous
 62
     7
100
AcDbCircle
 10
2.8015486646
 20
0.3600027697
 30
0.0
 40
0.2181362039963112
100
AcDbArc
 50
83.1949951467
 51
96.8050048533
  0
ARC
  5
10C
330
1F
100
AcDbEntity
  8
0
  6
Continuous
 62
     7
100
AcDbCircle
 10
3.0539399368
 20
0.4902160772
 30
0.0
 40
0.2258449796567945
100
AcDbArc
 50
172.9754149879
 51
197.0668326981
  0
LWPOLYLINE
  5
10D
330
1F
100
AcDbEntity
  8
0
  6
Continuous
 62
     7
100
AcDbPolyline
 90
        3
 70
   128
 43
0.0
 10
2.8380404771
 20
0.4239335144
 10
2.8537826895
 20
0.4107713266
 10
2.8761158771
 20
0.4083715394
  0
LWPOLYLINE
  5
10E
330
1F
100
AcDbEntity
  8
0
  6
Continuous
 62
     7
100
AcDbPolyline
 90
        3
 70
   128
 43
0.0
 10
2.8761158771
 20
0.4083715394
 10
2.8888023355
 20
0.4087923046
 10
2.8947573021
 20
0.4094242394
  0
LWPOLYLINE
  5
10F
330
1F
100
AcDbEntity
  8
0
  6
Continuous
 62
     7
100
AcDbPolyline
 90
        3
 70
   128
 43
0.0
 10
2.9025728021
 20
0.5766077394
 10
2.9317861686
 20
0.5781057531
 10
2.9534530271
 20
0.5766107644
  0
LWPOLYLINE
  5
110
330
1F
100
AcDbEntity
  8
0
  6
Continuous
 62
     7
100
AcDbPolyline
 90
        3
 70
   128
 43
0.0
 10
2.9534530271
 20
0.3726545394
 10
2.9297333422
 20
0.3666378355
 10
2.9091890271
 20
0.3628978144
  0
LWPOLYLINE
  5
111
330
1F
100
AcDbEntity
  8
0
  6
Continuous
 62
     7
100
AcDbPolyline
 90
        3
 70
   128
 43
0.0
 10
2.9091890271
 20
0.3628978144
 10
2.8817325814
 20
0.3609770576
 10
2.8610016021
 20
0.3610355144
  0
LWPOLYLINE
  5
112
330
1F
100
AcDbEntity
  8
0
  6
Continuous
 62
     7
100
AcDbPolyline
 90
        3
 70
   128
 43
0.0
 10
2.2458664771
 20
0.3635476394
 10
2.2143445512
 20
0.3795095295
 10
2.2030663021
 20
0.4058445644
  0
ARC
  5
113
330
1F
100
AcDbEntity
  8
0
  6
Continuous
 62
     7
100
AcDbCircle
 10
4.7637320985
 20
0.4925137369
 30
0.0
 40
2.56213209388036
100
AcDbArc
 50
178.9742593379
 51
181.9385125874
  0
LWPOLYLINE
  5
114
330
1F
100
AcDbEntity
  8
0
  6
Continuous
 62
     7
100
AcDbPolyline
 90
        3
 70
   128
 43
0.0
 10
2.2057800021
 20
0.6650801894
 10
2.2240486342
 20
0.6656782414
 10
2.2374943771
 20
0.6650834894
  0
LWPOLYLINE
  5
115
330
1F
100
AcDbEntity
  8
0
  6
Continuous
 62
     7
100
AcDbPolyline
 90
        3
 70
   128
 43
0.0
 10
2.2440734771
 20
0.4087100644
 10
2.2489841583
 20
0.4007511975
 10
2.2542751521
 20
0.3967035644
  0
ARC
  5
116
330
1F
100
AcDbEntity
  8
0
  6
Continuous
 62
     7
100
AcDbCircle
 10
2.2690670967
 20
0.4520119948
 30
0.0
 40
0.0572522846312614
100
AcDbArc
 50
255.0269742805
 51
278.750981129
  0
LWPOLYLINE
  5
117
330
1F
100
AcDbEntity
  8
0
  6
Continuous
 62
     7
100
AcDbPolyline
 90
        3
 70
   128
 43
0.0
 10
2.2846623771
 20
0.3912340894
 10
2.2857409433
 20
0.3835947462
 10
2.2863621521
 20
0.3758879894
  0
LWPOLYLINE
  5
118
330
1F
100
AcDbEntity
  8
0
  6
Continuous
 62
     7
100
AcDbPolyline
 90
        5
 70
   128
 43
0.0
 10
2.2863621521
 20
0.3758879894
 10
2.2865953901
 20
0.367971131
 10
2.2849508431
 20
0.3652661227
 10
2.2800649489
 20
0.3641372898
 10
2.2729770771
 20
0.3634500144
  0
LWPOLYLINE
  5
119
330
1F
100
AcDbEntity
  8
0
  6
Continuous
 62
     7
100
AcDbPolyline
 90
        3
 70
   128
 43
0.0
 10
2.2729770771
 20
0.3634500144
 10
2.2566215756
 20
0.3626354357
 10
2.2458651021
 20
0.3635470894
  0
LWPOLYLINE
  5
11A
330
1F
100
AcDbEntity
  8
0
  6
Continuous
 62
     7
100
AcDbPolyline
 90
        3
 70
   128
 43
0.0
 10
0.8552847021
 20
0.3640640894
 10
0.8506376486
 20
0.3645588175
 10
0.8469717271
 20
0.3650070644
  0
LWPOLYLINE
  5
11B
330
1F
100
AcDbEntity
  8
0
  6
Continuous
 62
     7
100
AcDbPolyline
 90
        3
 70
   128
 43
0.0
 10
0.8479793271
 20
0.5753936144
 10
0.8613091994
 20
0.5759953905
 10
0.8715619521
 20
0.5754059894
  0
LWPOLYLINE
  5
11C
330
1F
100
AcDbEntity
  8
0
  6
Continuous
 62
     7
100
AcDbPolyline
 90
        3
 70
   128
 43
0.0
 10
0.8779639521
 20
0.5665977394
 10
0.8791289655
 20
0.5570701344
 10
0.8798246021
 20
0.5494649644
  0
LWPOLYLINE
  5
11D
330
1F
100
AcDbEntity
  8
0
  6
Continuous
 62
     7
100
AcDbPolyline
 90
        3
 70
   128
 43
0.0
 10
0.8844063771
 20
0.5462323394
 10
0.8971333752
 20
0.5600307226
 10
0.9085486271
 20
0.5688579644
  0
LWPOLYLINE
  5
11E
330
1F
100
AcDbEntity
  8
0
  6
Continuous
 62
     7
100
AcDbPolyline
 90
        3
 70
   128
 43
0.0
 10
0.9085486271
 20
0.5688579644
 10
0.916093607
 20
0.5726069399
 10
0.9230375521
 20
0.5754076394
  0
LWPOLYLINE
  5
11F
330
1F
100
AcDbEntity
  8
0
  6
Continuous
 62
     7
100
AcDbPolyline
 90
        3
 70
   128
 43
0.0
 10
0.9230375521
 20
0.5754076394
 10
0.9342265322
 20
0.5782629625
 10
0.9489956271
 20
0.5785184394
  0
LWPOLYLINE
  5
120
330
1F
100
AcDbEntity
  8
0
  6
Continuous
 62
     7
100
AcDbPolyline
 90
        3
 70
   128
 43
0.0
 10
0.9489956271
 20
0.5785184394
 10
0.9659514255
 20
0.5779122326
 10
0.9743454021
 20
0.5757332394
  0
LWPOLYLINE
  5
121
330
1F
100
AcDbEntity
  8
0
  6
Continuous
 62
     7
100
AcDbPolyline
 90
        3
 70
   128
 43
0.0
 10
0.9743454021
 20
0.5757332394
 10
0.9991776293
 20
0.5597316789
 10
1.0110414021
 20
0.5391026894
  0
ARC
  5
122
330
1F
100
AcDbEntity
  8
0
  6
Continuous
 62
     7
100
AcDbCircle
 10
0.6947511814
 20
0.4721305601
 30
0.0
 40
0.323302907150912
100
AcDbArc
 50
354.8085115814
 51
11.9553747343
  0
ARC
  5
123
330
1F
100
AcDbEntity
  8
0
  6
Continuous
 62
     7
100
AcDbCircle
 10
0.997296419
 20
0.529706474
 30
0.0
 40
0.1656451450610662
100
AcDbArc
 50
264.3734694631
 51
275.7122269704
  0
ARC
  5
124
330
1F
100
AcDbEntity
  8
0
  6
Continuous
 62
     7
100
AcDbCircle
 10
0.737167003
 20
0.462399993
 30
0.0
 40
0.241783642526235
100
AcDbArc
 50
353.5632669131
 51
15.0938498107
  0
LWPOLYLINE
  5
125
330
1F
100
AcDbEntity
  8
0
  6
Continuous
 62
     7
100
AcDbPolyline
 90
        3
 70
   128
 43
0.0
 10
0.9706092521
 20
0.5253606644
 10
0.9513688713
 20
0.5419377968
 10
0.9283390021
 20
0.5423955394
  0
LWPOLYLINE
  5
126
330
1F
100
AcDbEntity
  8
0
  6
Continuous
 62
     7
100
AcDbPolyline
 90
        3
 70
   128
 43
0.0
 10
0.9283390021
 20
0.5423955394
 10
0.9018804212
 20
0.5286071454
 10
0.8887343271
 20
0.5075843894
  0
ARC
  5
127
330
1F
100
AcDbEntity
  8
0
  6
Continuous
 62
     7
100
AcDbCircle
 10
1.1288347753
 20
0.4495798754
 30
0.0
 40
0.2470075887172543
100
AcDbArc
 50
166.4184642904
 51
185.6566379011
  0
LWPOLYLINE
  5
128
330
1F
100
AcDbEntity
  8
0
  6
Continuous
 62
     7
100
AcDbPolyline
 90
        3
 70
   128
 43
0.0
 10
0.8802239021
 20
0.3650791144
 10
0.8660977166
 20
0.3640454794
 10
0.8552847021
 20
0.3640654644
  0
LWPOLYLINE
  5
129
330
1F
100
AcDbEntity
  8
0
  6
Continuous
 62
     7
100
AcDbPolyline
 90
        3
 70
   128
 43
0.0
 10
1.3016715771
 20
0.3640640894
 10
1.2970245236
 20
0.3645588175
 10
1.2933586021
 20
0.3650070644
  0
LWPOLYLINE
  5
12A
330
1F
100
AcDbEntity
  8
0
  6
Continuous
 62
     7
100
AcDbPolyline
 90
        3
 70
   128
 43
0.0
 10
1.2943662021
 20
0.5753936144
 10
1.3084216463
 20
0.5760063215
 10
1.3185747271
 20
0.5754180894
  0
LWPOLYLINE
  5
12B
330
1F
100
AcDbEntity
  8
0
  6
Continuous
 62
     7
100
AcDbPolyline
 90
        3
 70
   128
 43
0.0
 10
1.3244050021
 20
0.5660975144
 10
1.3255791584
 20
0.556500878
 10
1.3262546521
 20
0.5493445144
  0
LWPOLYLINE
  5
12C
330
1F
100
AcDbEntity
  8
0
  6
Continuous
 62
     7
100
AcDbPolyline
 90
        3
 70
   128
 43
0.0
 10
1.3303018271
 20
0.5462378394
 10
1.3414332467
 20
0.5586743156
 10
1.3510461771
 20
0.5664926894
  0
LWPOLYLINE
  5
12D
330
1F
100
AcDbEntity
  8
0
  6
Continuous
 62
     7
100
AcDbPolyline
 90
        3
 70
   128
 43
0.0
 10
1.3510461771
 20
0.5664926894
 10
1.3724200199
 20
0.5745285195
 10
1.3909173271
 20
0.5754673144
  0
LWPOLYLINE
  5
12E
330
1F
100
AcDbEntity
  8
0
  6
Continuous
 62
     7
100
AcDbPolyline
 90
        4
 70
   128
 43
0.0
 10
1.3909173271
 20
0.5754673144
 10
1.3954553552
 20
0.5749009637
 10
1.3972956949
 20
0.5743054228
 10
1.3985934021
 20
0.5721367894
  0
ARC
  5
12F
330
1F
100
AcDbEntity
  8
0
  6
Continuous
 62
     7
100
AcDbCircle
 10
1.2860624461
 20
0.5589249093
 30
0.0
 40
0.1133038826966301
100
AcDbArc
 50
353.2906454476
 51
6.6962488429
  0
LWPOLYLINE
  5
130
330
1F
100
AcDbEntity
  8
0
  6
Continuous
 62
     7
100
AcDbPolyline
 90
        3
 70
   128
 43
0.0
 10
1.3913820771
 20
0.5395195894
 10
1.3754630882
 20
0.5385894671
 10
1.3631508521
 20
0.5357457644
  0
LWPOLYLINE
  5
131
330
1F
100
AcDbEntity
  8
0
  6
Continuous
 62
     7
100
AcDbPolyline
 90
        3
 70
   128
 43
0.0
 10
1.3631508521
 20
0.5357457644
 10
1.3422279018
 20
0.5201807193
 10
1.3321589021
 20
0.4987612894
  0
ARC
  5
132
330
1F
100
AcDbEntity
  8
0
  6
Continuous
 62
     7
100
AcDbCircle
 10
1.724653458
 20
0.4493185718
 30
0.0
 40
0.3955964595323544
100
AcDbArc
 50
172.820242697
 51
183.0536979966
  0
LWPOLYLINE
  5
133
330
1F
100
AcDbEntity
  8
0
  6
Continuous
 62
     7
100
AcDbPolyline
 90
        3
 70
   128
 43
0.0
 10
1.3265615521
 20
0.3650672894
 10
1.312462705
 20
0.3640439781
 10
1.3016715771
 20
0.3640643644
  0
ARC
  5
134
330
1F
100
AcDbEntity
  8
0
  6
Continuous
 62
     7
100
AcDbCircle
 10
1.4856337675
 20
0.3795540015
 30
0.0
 40
0.0152280500366078
100
AcDbArc
 50
242.7316366275
 51
274.434542129
  0
ARC
  5
135
330
1F
100
AcDbEntity
  8
0
  6
Continuous
 62
     7
100
AcDbCircle
 10
5.0133517866
 20
1.5156855057
 30
0.0
 40
3.716961494281757
100
AcDbArc
 50
194.6634098201
 51
198.0172298531
  0
ARC
  5
136
330
1F
100
AcDbEntity
  8
0
  6
Continuous
 62
     7
100
AcDbCircle
 10
1.4375065533
 20
0.449492001
 30
0.0
 40
0.1268760037350963
100
AcDbArc
 50
83.7328822223
 51
99.0940146331
  0
ARC
  5
137
330
1F
100
AcDbEntity
  8
0
  6
Continuous
 62
     7
100
AcDbCircle
 10
3.5976963503
 20
0.9565130581
 30
0.0
 40
2.168368289749353
100
AcDbArc
 50
192.4084599571
 51
194.7358269525
  0
LWPOLYLINE
  5
138
330
1F
100
AcDbEntity
  8
0
  6
Continuous
 62
     7
100
AcDbPolyline
 90
        6
 70
   128
 43
0.0
 10
1.5006481021
 20
0.4049609894
 10
1.5006584836
 20
0.404951328
 10
1.5006726096
 20
0.4049557389
 10
1.5008346723
 20
0.4052729917
 10
1.5027199993
 20
0.4112128394
 10
1.5243198271
 20
0.4892792894
  0
ARC
  5
139
330
1F
100
AcDbEntity
  8
0
  6
Continuous
 62
     7
100
AcDbCircle
 10
1.5684549999
 20
0.4669675873
 30
0.0
 40
0.1094802102953695
100
AcDbArc
 50
79.7420461824
 51
97.1332963649
  0
ARC
  5
13A
330
1F
100
AcDbEntity
  8
0
  6
Continuous
 62
     7
100
AcDbCircle
 10
-4.3616395277
 20
-1.0811666982
 30
0.0
 40
6.175720030569837
100
AcDbArc
 50
14.7521186558
 51
15.552720272
  0
ARC
  5
13B
330
1F
100
AcDbEntity
  8
0
  6
Continuous
 62
     7
100
AcDbCircle
 10
2.3285471322
 20
0.6439508193
 30
0.0
 40
0.7340651063761927
100
AcDbArc
 50
191.9940642065
 51
198.7860830048
  0
LWPOLYLINE
  5
13C
330
1F
100
AcDbEntity
  8
0
  6
Continuous
 62
     7
100
AcDbPolyline
 90
        7
 70
   128
 43
0.0
 10
1.6335875021
 20
0.4075556144
 10
1.6335919892
 20
0.4075527001
 10
1.6335972955
 20
0.4075532059
 10
1.6336103553
 20
0.4075644362
 10
1.6337561457
 20
0.4079136146
 10
1.6354180997
 20
0.4138342339
 10
1.6543073771
 20
0.4899414894
  0
ARC
  5
13D
330
1F
100
AcDbEntity
  8
0
  6
Continuous
 62
     7
100
AcDbCircle
 10
3.1962890644
 20
0.1533591128
 30
0.0
 40
1.57828869990234
100
AcDbArc
 50
164.5318132956
 51
167.6866636707
  0
ARC
  5
13E
330
1F
100
AcDbEntity
  8
0
  6
Continuous
 62
     7
100
AcDbCircle
 10
1.6870941088
 20
0.540021967
 30
0.0
 40
0.0362876768504158
100
AcDbArc
 50
78.1608707773
 51
109.1870432325
  0
ARC
  5
13F
330
1F
100
AcDbEntity
  8
0
  6
Continuous
 62
     7
100
AcDbCircle
 10
1.7020727427
 20
0.4990302246
 30
0.0
 40
0.0768775161303892
100
AcDbArc
 50
81.3530538601
 51
95.6237840402
  0
ARC
  5
140
330
1F
100
AcDbEntity
  8
0
  6
Continuous
 62
     7
100
AcDbCircle
 10
0.6952487209
 20
0.8148109584
 30
0.0
 40
1.046229109104811
100
AcDbArc
 50
340.7737743875
 51
346.7510732951
  0
ARC
  5
141
330
1F
100
AcDbEntity
  8
0
  6
Continuous
 62
     7
100
AcDbCircle
 10
1.3026367446
 20
0.5350378214
 30
0.0
 40
0.3859583804799039
100
AcDbArc
 50
333.8892425335
 51
350.3423103766
  0
ARC
  5
142
330
1F
100
AcDbEntity
  8
0
  6
Continuous
 62
     7
100
AcDbCircle
 10
1.6315437155
 20
0.4891792699
 30
0.0
 40
0.1252562731422135
100
AcDbArc
 50
261.7189324069
 51
278.1063060906
  0
ARC
  5
143
330
1F
100
AcDbEntity
  8
0
  6
Continuous
 62
     7
100
AcDbCircle
 10
1.886250853
 20
0.4934791106
 30
0.0
 40
0.3013957563529227
100
AcDbArc
 50
189.3637752778
 51
205.1836239441
  0
ARC
  5
144
330
1F
100
AcDbEntity
  8
0
  6
Continuous
 62
     7
100
AcDbCircle
 10
1.0911895158
 20
0.3423710376
 30
0.0
 40
0.5080406851344095
100
AcDbArc
 50
11.5901637412
 51
20.7833093678
  0
ARC
  5
145
330
1F
100
AcDbEntity
  8
0
  6
Continuous
 62
     7
100
AcDbCircle
 10
2.0454061898
 20
0.3345634631
 30
0.0
 40
0.5148195766694953
100
AcDbArc
 50
158.5722308319
 51
167.6848711571
  0
ARC
  5
146
330
1F
100
AcDbEntity
  8
0
  6
Continuous
 62
     7
100
AcDbCircle
 10
1.2659370719
 20
0.4906055786
 30
0.0
 40
0.280335252869074
100
AcDbArc
 50
333.4755410054
 51
350.5065426727
  0
ARC
  5
147
330
1F
100
AcDbEntity
  8
0
  6
Continuous
 62
     7
100
AcDbCircle
 10
1.4969667548
 20
0.5034981669
 30
0.0
 40
0.139496787561968
100
AcDbArc
 50
265.8250972081
 51
278.1594462828
  0
LWPOLYLINE
  5
148
330
1F
100
AcDbEntity
  8
0
  6
Continuous
 62
     7
100
AcDbPolyline
 90
        3
 70
   128
 43
0.0
 10
1.7682115521
 20
0.3640640894
 10
1.7635644986
 20
0.3645588175
 10
1.7598985771
 20
0.3650070644
  0
LWPOLYLINE
  5
149
330
1F
100
AcDbEntity
  8
0
  6
Continuous
 62
     7
100
AcDbPolyline
 90
        3
 70
   128
 43
0.0
 10
1.7593945021
 20
0.6650801894
 10
1.766856629
 20
0.6655603555
 10
1.7757688271
 20
0.6657049894
  0
LWPOLYLINE
  5
14A
330
1F
100
AcDbEntity
  8
0
  6
Continuous
 62
     7
100
AcDbPolyline
 90
        3
 70
   128
 43
0.0
 10
1.7757688271
 20
0.6657049894
 10
1.7868153902
 20
0.6654788095
 10
1.7921431521
 20
0.6650801894
  0
LWPOLYLINE
  5
14B
330
1F
100
AcDbEntity
  8
0
  6
Continuous
 62
     7
100
AcDbPolyline
 90
        3
 70
   128
 43
0.0
 10
1.8004517271
 20
0.5487263144
 10
1.8188234545
 20
0.5667247076
 10
1.8363271271
 20
0.5755121394
  0
LWPOLYLINE
  5
14C
330
1F
100
AcDbEntity
  8
0
  6
Continuous
 62
     7
100
AcDbPolyline
 90
        3
 70
   128
 43
0.0
 10
1.8363271271
 20
0.5755121394
 10
1.8668882775
 20
0.578923194
 10
1.8905169771
 20
0.5744231394
  0
LWPOLYLINE
  5
14D
330
1F
100
AcDbEntity
  8
0
  6
Continuous
 62
     7
100
AcDbPolyline
 90
        3
 70
   128
 43
0.0
 10
1.8905169771
 20
0.5744231394
 10
1.9098257181
 20
0.5616813827
 10
1.9208483771
 20
0.5468508144
  0
LWPOLYLINE
  5
14E
330
1F
100
AcDbEntity
  8
0
  6
Continuous
 62
     7
100
AcDbPolyline
 90
        3
 70
   128
 43
0.0
 10
1.9208483771
 20
0.5468508144
 10
1.9260403432
 20
0.5321658945
 10
1.9288481271
 20
0.5192520894
  0
ARC
  5
14F
330
1F
100
AcDbEntity
  8
0
  6
Continuous
 62
     7
100
AcDbCircle
 10
0.6246262848
 20
0.4612609704
 30
0.0
 40
1.305510468606886
100
AcDbArc
 50
359.0014701634
 51
2.5459313436
  0
LWPOLYLINE
  5
150
330
1F
100
AcDbEntity
  8
0
  6
Continuous
 62
     7
100
AcDbPolyline
 90
        3
 70
   128
 43
0.0
 10
1.9266638021
 20
0.3648728644
 10
1.9194065814
 20
0.3643073409
 10
1.9102894771
 20
0.3641369644
  0
LWPOLYLINE
  5
151
330
1F
100
AcDbEntity
  8
0
  6
Continuous
 62
     7
100
AcDbPolyline
 90
        3
 70
   128
 43
0.0
 10
1.9102894771
 20
0.3641369644
 10
1.8990380077
 20
0.3644032597
 10
1.8939151521
 20
0.3648728644
  0
ARC
  5
152
330
1F
100
AcDbEntity
  8
0
  6
Continuous
 62
     7
100
AcDbCircle
 10
1.5771094827
 20
0.4593888033
 30
0.0
 40
0.3146222235204008
100
AcDbArc
 50
355.1501383398
 51
11.2235301378
  0
LWPOLYLINE
  5
153
330
1F
100
AcDbEntity
  8
0
  6
Continuous
 62
     7
100
AcDbPolyline
 90
        3
 70
   128
 43
0.0
 10
1.8857146521
 20
0.5206259894
 10
1.8780493863
 20
0.5331662399
 10
1.8690392021
 20
0.5397714894
  0
LWPOLYLINE
  5
154
330
1F
100
AcDbEntity
  8
0
  6
Continuous
 62
     7
100
AcDbPolyline
 90
        3
 70
   128
 43
0.0
 10
1.8690392021
 20
0.5397714894
 10
1.8607635092
 20
0.5429382996
 10
1.8514436021
 20
0.5431924894
  0
LWPOLYLINE
  5
155
330
1F
100
AcDbEntity
  8
0
  6
Continuous
 62
     7
100
AcDbPolyline
 90
        3
 70
   128
 43
0.0
 10
1.8514436021
 20
0.5431924894
 10
1.8404060066
 20
0.5424315843
 10
1.8332366771
 20
0.5402950894
  0
LWPOLYLINE
  5
156
330
1F
100
AcDbEntity
  8
0
  6
Continuous
 62
     7
100
AcDbPolyline
 90
        3
 70
   128
 43
0.0
 10
1.8332366771
 20
0.5402950894
 10
1.8208248004
 20
0.5342158019
 10
1.8128305771
 20
0.5268027644
  0
LWPOLYLINE
  5
157
330
1F
100
AcDbEntity
  8
0
  6
Continuous
 62
     7
100
AcDbPolyline
 90
        3
 70
   128
 43
0.0
 10
1.8128305771
 20
0.5268027644
 10
1.8037449629
 20
0.5133856504
 10
1.7987043771
 20
0.4997636644
  0
ARC
  5
158
330
1F
100
AcDbEntity
  8
0
  6
Continuous
 62
     7
100
AcDbCircle
 10
2.1983221756
 20
0.4498894011
 30
0.0
 40
0.4027180490555277
100
AcDbArc
 50
172.88598979
 51
183.0094709509
  0
LWPOLYLINE
  5
159
330
1F
100
AcDbEntity
  8
0
  6
Continuous
 62
     7
100
AcDbPolyline
 90
        3
 70
   128
 43
0.0
 10
1.7930954771
 20
0.3650656394
 10
1.7789998309
 20
0.3640435209
 10
1.7682115521
 20
0.3640640894
  0
ARC
  5
15A
330
1F
100
AcDbEntity
  8
0
  6
Continuous
 62
     7
100
AcDbCircle
 10
2.2707246744
 20
0.6341218279
 30
0.0
 40
0.2172652935603849
100
AcDbArc
 50
354.1745560049
 51
5.7535510871
  0
ARC
  5
15B
330
1F
100
AcDbEntity
  8
0
  6
Continuous
 62
     7
100
AcDbCircle
 10
2.4372979625
 20
0.3082959632
 30
0.0
 40
0.2362666518130644
100
AcDbArc
 50
83.4802796227
 51
93.8024177363
  0
ARC
  5
15C
330
1F
100
AcDbEntity
  8
0
  6
Continuous
 62
     7
100
AcDbCircle
 10
2.3782707952
 20
0.52072403
 30
0.0
 40
0.0887056421432699
100
AcDbArc
 50
351.6355320045
 51
14.5670532407
  0
ARC
  5
15D
330
1F
100
AcDbEntity
  8
0
  6
Continuous
 62
     7
100
AcDbCircle
 10
2.3820660745
 20
0.5121536884
 30
0.0
 40
0.0840785348741593
100
AcDbArc
 50
348.2107238663
 51
357.0455189838
  0
LWPOLYLINE
  5
15E
330
1F
100
AcDbEntity
  8
0
  6
Continuous
 62
     7
100
AcDbPolyline
 90
        4
 70
   128
 43
0.0
 10
2.4643710271
 20
0.4949753644
 10
2.4639036012
 20
0.4945156385
 10
2.4626814872
 20
0.4941549964
 10
2.4215606771
 20
0.4934196894
  0
ARC
  5
15F
330
1F
100
AcDbEntity
  8
0
  6
Continuous
 62
     7
100
AcDbCircle
 10
2.2463274793
 20
0.3900461833
 30
0.0
 40
0.2444508731172235
100
AcDbArc
 50
355.1144139339
 51
4.927786516
  0
LWPOLYLINE
  5
160
330
1F
100
AcDbEntity
  8
0
  6
Continuous
 62
     7
100
AcDbPolyline
 90
        3
 70
   128
 43
0.0
 10
1.9631909521
 20
0.7031278144
 10
1.9622832726
 20
0.7245570174
 10
1.9786148771
 20
0.7397030894
  0
LWPOLYLINE
  5
161
330
1F
100
AcDbEntity
  8
0
  6
Continuous
 62
     7
100
AcDbPolyline
 90
        3
 70
   128
 43
0.0
 10
1.9786148771
 20
0.7397030894
 10
2.0178907897
 20
0.7580151523
 10
2.0579094771
 20
0.7710624394
  0
LWPOLYLINE
  5
162
330
1F
100
AcDbEntity
  8
0
  6
Continuous
 62
     7
100
AcDbPolyline
 90
        7
 70
   128
 43
0.0
 10
2.0579094771
 20
0.7710624394
 10
2.0641885349
 20
0.7730524941
 10
2.0647978077
 20
0.7734378811
 10
2.0648971634
 20
0.7736042641
 10
2.0648557498
 20
0.7737537366
 10
2.0645764815
 20
0.7739275443
 10
2.0387642521
 20
0.7741413394
  0
LWPOLYLINE
  5
163
330
1F
100
AcDbEntity
  8
0
  6
Continuous
 62
     7
100
AcDbPolyline
 90
        3
 70
   128
 43
0.0
 10
2.0387642521
 20
0.7741413394
 10
1.9258670992
 20
0.7676578169
 10
1.8428182271
 20
0.7573641394
  0
LWPOLYLINE
  5
164
330
1F
100
AcDbEntity
  8
0
  6
Continuous
 62
     7
100
AcDbPolyline
 90
        3
 70
   128
 43
0.0
 10
1.8428182271
 20
0.7573641394
 10
1.7786248062
 20
0.7459481509
 10
1.7067452021
 20
0.7307262644
  0
ARC
  5
165
330
1F
100
AcDbEntity
  8
0
  6
Continuous
 62
     7
100
AcDbCircle
 10
1.3757717213
 20
2.1486672564
 30
0.0
 40
1.456056352578179
100
AcDbArc
 50
279.3817129919
 51
283.138643106
  0
LWPOLYLINE
  5
166
330
1F
100
AcDbEntity
  8
0
  6
Continuous
 62
     7
100
AcDbPolyline
 90
        3
 70
   128
 43
0.0
 10
1.6131250271
 20
0.7120867644
 10
1.5800871274
 20
0.7083089618
 10
1.5598710021
 20
0.7070446394
  0
LWPOLYLINE
  5
167
330
1F
100
AcDbEntity
  8
0
  6
Continuous
 62
     7
100
AcDbPolyline
 90
        3
 70
   128
 43
0.0
 10
1.5524902771
 20
0.7306561394
 10
1.5396734649
 20
0.7597228928
 10
1.5314090521
 20
0.7827884394
  0
LWPOLYLINE
  5
168
330
1F
100
AcDbEntity
  8
0
  6
Continuous
 62
     7
100
AcDbPolyline
 90
        3
 70
   128
 43
0.0
 10
1.5314090521
 20
0.7827884394
 10
1.5276511335
 20
0.7929498317
 10
1.5254984771
 20
0.7950473894
  0
ARC
  5
169
330
1F
100
AcDbEntity
  8
0
  6
Continuous
 62
     7
100
AcDbCircle
 10
0.2767241316
 20
-5.9598296542
 30
0.0
 40
6.869337758471834
100
AcDbArc
 50
79.5259821306
 51
80.0821451101
  0
ARC
  5
16A
330
1F
100
AcDbEntity
  8
0
  6
Continuous
 62
     7
100
AcDbCircle
 10
1.816419052
 20
2.9733823441
 30
0.0
 40
2.195674240767448
100
AcDbArc
 50
258.9663375921
 51
260.6545748612
  0
ARC
  5
16B
330
1F
100
AcDbEntity
  8
0
  6
Continuous
 62
     7
100
AcDbCircle
 10
1.7756029064
 20
0.8618630874
 30
0.0
 40
0.3818977711377451
100
AcDbArc
 50
181.9708780782
 51
186.5506921247
  0
LWPOLYLINE
  5
16C
330
1F
100
AcDbEntity
  8
0
  6
Continuous
 62
     7
100
AcDbPolyline
 90
        3
 70
   128
 43
0.0
 10
1.3939310521
 20
0.8487290394
 10
1.3919449601
 20
0.9140241839
 10
1.3949551521
 20
0.9649987644
  0
ARC
  5
16D
330
1F
100
AcDbEntity
  8
0
  6
Continuous
 62
     7
100
AcDbCircle
 10
1.593892847
 20
0.9616255435
 30
0.0
 40
0.1989662913354921
100
AcDbArc
 50
168.7707726487
 51
179.0285762478
  0
ARC
  5
16E
330
1F
100
AcDbEntity
  8
0
  6
Continuous
 62
     7
100
AcDbCircle
 10
1.5295417716
 20
0.4007480898
 30
0.0
 40
0.6137247934761937
100
AcDbArc
 50
96.2815819045
 51
102.3061310635
  0
ARC
  5
16F
330
1F
100
AcDbEntity
  8
0
  6
Continuous
 62
     7
100
AcDbCircle
 10
0.9277081231
 20
4.601146835
 30
0.0
 40
3.62995333285934
100
AcDbArc
 50
278.4703454973
 51
279.5113007118
  0
ARC
  5
170
330
1F
100
AcDbEntity
  8
0
  6
Continuous
 62
     7
100
AcDbCircle
 10
1.5159471271
 20
1.0349338642
 30
0.0
 40
0.0180465977099846
100
AcDbArc
 50
309.9258348929
 51
356.5662973382
  0
LWPOLYLINE
  5
171
330
1F
100
AcDbEntity
  8
0
  6
Continuous
 62
     7
100
AcDbPolyline
 90
        3
 70
   128
 43
0.0
 10
1.5339613271
 20
1.0338529894
 10
1.5438183008
 20
1.0590874375
 10
1.5531505521
 20
1.0790052394
  0
ARC
  5
172
330
1F
100
AcDbEntity
  8
0
  6
Continuous
 62
     7
100
AcDbCircle
 10
1.4898905739
 20
1.1163167358
 30
0.0
 40
0.073443669586784
100
AcDbArc
 50
329.4673845646
 51
340.5077207367
  0
ARC
  5
173
330
1F
100
AcDbEntity
  8
0
  6
Continuous
 62
     7
100
AcDbCircle
 10
1.0168642676
 20
0.7657207572
 30
0.0
 40
0.6327565559873616
100
AcDbArc
 50
31.0206638538
 51
36.9962677094
  0
ARC
  5
174
330
1F
100
AcDbEntity
  8
0
  6
Continuous
 62
     7
100
AcDbCircle
 10
2.9109784799
 20
2.1314432547
 30
0.0
 40
1.702572232825444
100
AcDbArc
 50
213.1137469943
 51
215.3457276194
  0
ARC
  5
175
330
1F
100
AcDbEntity
  8
0
  6
Continuous
 62
     7
100
AcDbCircle
 10
1.8576459471
 20
0.935027525
 30
0.0
 40
0.4580766557346524
100
AcDbArc
 50
132.6719634907
 51
144.4555792074
  0
LWPOLYLINE
  5
176
330
1F
100
AcDbEntity
  8
0
  6
Continuous
 62
     7
100
AcDbPolyline
 90
        3
 70
   128
 43
0.0
 10
1.5471616021
 20
1.2718267144
 10
1.5698402682
 20
1.2925818118
 10
1.5901265021
 20
1.3099337394
  0
LWPOLYLINE
  5
177
330
1F
100
AcDbEntity
  8
0
  6
Continuous
 62
     7
100
AcDbPolyline
 90
        3
 70
   128
 43
0.0
 10
1.6188285271
 20
1.3286067894
 10
1.6394891895
 20
1.3137758487
 10
1.6722401271
 20
1.2902137644
  0
ARC
  5
178
330
1F
100
AcDbEntity
  8
0
  6
Continuous
 62
     7
100
AcDbCircle
 10
2.3605477931
 20
2.2033936359
 30
0.0
 40
1.143531775166778
100
AcDbArc
 50
232.9929063242
 51
236.1558765828
  0
ARC
  5
179
330
1F
100
AcDbEntity
  8
0
  6
Continuous
 62
     7
100
AcDbCircle
 10
1.716766766
 20
1.2908409005
 30
0.0
 40
0.0378499120379585
100
AcDbArc
 50
280.5155688803
 51
301.4493909775
  0
LWPOLYLINE
  5
17A
330
1F
100
AcDbEntity
  8
0
  6
Continuous
 62
     7
100
AcDbPolyline
 90
        3
 70
   128
 43
0.0
 10
1.7365147771
 20
1.2585510894
 10
1.7567175935
 20
1.2674170054
 10
1.7742280021
 20
1.2738894894
  0
ARC
  5
17B
330
1F
100
AcDbEntity
  8
0
  6
Continuous
 62
     7
100
AcDbCircle
 10
1.7684000512
 20
1.3046292182
 30
0.0
 40
0.0312873127449736
100
AcDbArc
 50
280.7353027555
 51
306.6011444197
  0
ARC
  5
17C
330
1F
100
AcDbEntity
  8
0
  6
Continuous
 62
     7
100
AcDbCircle
 10
0.568190415
 20
1.5436720681
 30
0.0
 40
1.247161262033496
100
AcDbArc
 50
347.7715911819
 51
350.8516724468
  0
ARC
  5
17D
330
1F
100
AcDbEntity
  8
0
  6
Continuous
 62
     7
100
AcDbCircle
 10
4.8435712666
 20
0.8199881975
 30
0.0
 40
3.089091361514308
100
AcDbArc
 50
168.9579950352
 51
170.2074550433
  0
ARC
  5
17E
330
1F
100
AcDbEntity
  8
0
  6
Continuous
 62
     7
100
AcDbCircle
 10
1.8219378156
 20
1.3947819172
 30
0.0
 40
0.0197377300860737
100
AcDbArc
 50
70.6233735114
 51
121.3527936363
  0
LWPOLYLINE
  5
17F
330
1F
100
AcDbEntity
  8
0
  6
Continuous
 62
     7
100
AcDbPolyline
 90
        3
 70
   128
 43
0.0
 10
1.8284863271
 20
1.4134016644
 10
1.8474315603
 20
1.4141048099
 10
1.8629300771
 20
1.4155070644
  0
LWPOLYLINE
  5
180
330
1F
100
AcDbEntity
  8
0
  6
Continuous
 62
     7
100
AcDbPolyline
 90
        3
 70
   128
 43
0.0
 10
1.8629300771
 20
1.4155070644
 10
1.8844363855
 20
1.4171915851
 10
1.9057550021
 20
1.4169656644
  0
ARC
  5
181
330
1F
100
AcDbEntity
  8
0
  6
Continuous
 62
     7
100
AcDbCircle
 10
1.9072533147
 20
0.818472845
 30
0.0
 40
0.5984946949238544
100
AcDbArc
 50
81.2655096719
 51
90.1434383281
  0
ARC
  5
182
330
1F
100
AcDbEntity
  8
0
  6
Continuous
 62
     7
100
AcDbCircle
 10
1.0007015249
 20
1.215222688
 30
0.0
 40
1.01628172016088
100
AcDbArc
 50
7.3048405311
 51
11.0510168832
  0
ARC
  5
183
330
1F
100
AcDbEntity
  8
0
  6
Continuous
 62
     7
100
AcDbCircle
 10
2.2506741399
 20
1.3554082021
 30
0.0
 40
0.2421877708745964
100
AcDbArc
 50
182.5953942878
 51
198.5691614464
  0
LWPOLYLINE
  5
184
330
1F
100
AcDbEntity
  8
0
  6
Continuous
 62
     7
100
AcDbPolyline
 90
        3
 70
   128
 43
0.0
 10
2.0210946771
 20
1.2782837144
 10
2.0273972653
 20
1.2759348019
 10
2.0362059271
 20
1.2727592394
  0
LWPOLYLINE
  5
185
330
1F
100
AcDbEntity
  8
0
  6
Continuous
 62
     7
100
AcDbPolyline
 90
        3
 70
   128
 43
0.0
 10
2.0362059271
 20
1.2727592394
 10
2.0512280047
 20
1.2669010572
 10
2.0630437271
 20
1.2618114894
  0
LWPOLYLINE
  5
186
330
1F
100
AcDbEntity
  8
0
  6
Continuous
 62
     7
100
AcDbPolyline
 90
        3
 70
   128
 43
0.0
 10
2.1265646021
 20
1.2897352644
 10
2.1672129491
 20
1.3176505152
 10
2.1830028521
 20
1.3284426144
  0
ARC
  5
187
330
1F
100
AcDbEntity
  8
0
  6
Continuous
 62
     7
100
AcDbCircle
 10
1.8354791261
 20
0.8348419332
 30
0.0
 40
0.6099651129945687
100
AcDbArc
 50
39.1249345934
 51
51.6147411877
  0
LWPOLYLINE
  5
188
330
1F
100
AcDbEntity
  8
0
  6
Continuous
 62
     7
100
AcDbPolyline
 90
        3
 70
   128
 43
0.0
 10
2.2885376771
 20
1.1532335144
 10
2.2600099525
 20
1.1141002265
 10
2.2495985021
 20
1.0997825894
  0
LWPOLYLINE
  5
189
330
1F
100
AcDbEntity
  8
0
  6
Continuous
 62
     7
100
AcDbPolyline
 90
        3
 70
   128
 43
0.0
 10
2.2548083771
 20
1.0776145644
 10
2.2632434474
 20
1.0597012013
 10
2.2684076771
 20
1.0476557894
  0
ARC
  5
18A
330
1F
100
AcDbEntity
  8
0
  6
Continuous
 62
     7
100
AcDbCircle
 10
2.2976409829
 20
1.0533543459
 30
0.0
 40
0.0297835477258707
100
AcDbArc
 50
191.0305494339
 51
218.6531487961
  0
ARC
  5
18B
330
1F
100
AcDbEntity
  8
0
  6
Continuous
 62
     7
100
AcDbCircle
 10
3.0508957167
 20
5.0557216497
 30
0.0
 40
4.095262571727553
100
AcDbArc
 50
259.069815234
 51
260.0100402433
  0
ARC
  5
18C
330
1F
100
AcDbEntity
  8
0
  6
Continuous
 62
     7
100
AcDbCircle
 10
2.1925192087
 20
0.0534218571
 30
0.0
 40
0.9803568526881254
100
AcDbArc
 50
77.4256106815
 51
81.3201733844
  0
ARC
  5
18D
330
1F
100
AcDbEntity
  8
0
  6
Continuous
 62
     7
100
AcDbCircle
 10
1.5272144749
 20
0.8628414629
 30
0.0
 40
0.8910157706057128
100
AcDbArc
 50
4.4027853417
 51
9.5236388095
  0
LWPOLYLINE
  5
18E
330
1F
100
AcDbEntity
  8
0
  6
Continuous
 62
     7
100
AcDbPolyline
 90
        3
 70
   128
 43
0.0
 10
2.4156008771
 20
0.9312425144
 10
2.4163861295
 20
0.9161160507
 10
2.4166365271
 20
0.9030286144
  0
ARC
  5
18F
330
1F
100
AcDbEntity
  8
0
  6
Continuous
 62
     7
100
AcDbCircle
 10
1.9839565394
 20
0.8862442396
 30
0.0
 40
0.4330054121874902
100
AcDbArc
 50
351.9825527533
 51
2.2214845252
  0
ARC
  5
190
330
1F
100
AcDbEntity
  8
0
  6
Continuous
 62
     7
100
AcDbCircle
 10
2.2823610918
 20
1.4200678247
 30
0.0
 40
0.6083499203710673
100
AcDbArc
 50
276.3478462115
 51
282.37437847
  0
ARC
  5
191
330
1F
100
AcDbEntity
  8
0
  6
Continuous
 62
     7
100
AcDbCircle
 10
2.8234129923
 20
-2.3576344833
 30
0.0
 40
3.208259295412905
100
AcDbArc
 50
98.4924015786
 51
99.6631076715
  0
LWPOLYLINE
  5
192
330
1F
100
AcDbEntity
  8
0
  6
Continuous
 62
     7
100
AcDbPolyline
 90
        3
 70
   128
 43
0.0
 10
2.2848917271
 20
0.8051052394
 10
2.2827178567
 20
0.8034507785
 10
2.2815579021
 20
0.8003939394
  0
LWPOLYLINE
  5
193
330
1F
100
AcDbEntity
  8
0
  6
Continuous
 62
     7
100
AcDbPolyline
 90
        3
 70
   128
 43
0.0
 10
2.2815579021
 20
0.8003939394
 10
2.2719482318
 20
0.7711537556
 10
2.2630531521
 20
0.7479077144
  0
ARC
  5
194
330
1F
100
AcDbEntity
  8
0
  6
Continuous
 62
     7
100
AcDbCircle
 10
2.3411452138
 20
0.7079538363
 30
0.0
 40
0.0877193392916393
100
AcDbArc
 50
152.9045637863
 51
162.6361428944
  0
ARC
  5
195
330
1F
100
AcDbEntity
  8
0
  6
Continuous
 62
     7
100
AcDbCircle
 10
2.295436008
 20
0.7519837945
 30
0.0
 40
0.0419955231239406
100
AcDbArc
 50
205.1551969519
 51
219.3964957406
  0
LWPOLYLINE
  5
196
330
1F
100
AcDbEntity
  8
0
  6
Continuous
 62
     7
100
AcDbPolyline
 90
        5
 70
   128
 43
0.0
 10
2.2629830271
 20
0.7253299394
 10
2.2676310384
 20
0.7176079394
 10
2.2678113068
 20
0.717047672
 10
2.2678193529
 20
0.7168782374
 10
2.2677694021
 20
0.7167884394
  0
ARC
  5
197
330
1F
100
AcDbEntity
  8
0
  6
Continuous
 62
     7
100
AcDbCircle
 10
2.2265809972
 20
0.8539826517
 30
0.0
 40
0.14324362672215
100
AcDbArc
 50
280.7879881182
 51
286.7107918834
  0
ARC
  5
198
330
1F
100
AcDbEntity
  8
0
  6
Continuous
 62
     7
100
AcDbCircle
 10
2.0516985029
 20
1.8072045561
 30
0.0
 40
1.112372219197352
100
AcDbArc
 50
268.6070316252
 51
280.4465949311
  0
LWPOLYLINE
  5
199
330
1F
100
AcDbEntity
  8
0
  6
Continuous
 62
     7
100
AcDbPolyline
 90
        3
 70
   128
 43
0.0
 10
2.0246573021
 20
0.6951610644
 10
1.9872372649
 20
0.6954368971
 10
1.9727634271
 20
0.6957248144
  0
LWPOLYLINE
  5
19A
330
1F
100
AcDbEntity
  8
0
  6
Continuous
 62
     7
100
AcDbPolyline
 90
        3
 70
   128
 43
0.0
 10
1.7440280521
 20
0.7967427644
 10
1.7788485755
 20
0.8034059072
 10
1.8022042052
 20
0.8114622734
  0
LWPOLYLINE
  5
19B
330
1F
100
AcDbEntity
  8
0
  6
Continuous
 62
     7
100
AcDbPolyline
 90
        3
 70
   128
 43
0.0
 10
1.8022042052
 20
0.8114622734
 10
1.8193486985
 20
0.816755239
 10
1.8352199771
 20
0.8178547894
  0
ARC
  5
19C
330
1F
100
AcDbEntity
  8
0
  6
Continuous
 62
     7
100
AcDbCircle
 10
1.8374129413
 20
0.6080319804
 30
0.0
 40
0.2098342686056141
100
AcDbArc
 50
76.9779317038
 51
90.5988053611
  0
LWPOLYLINE
  5
19D
330
1F
100
AcDbEntity
  8
0
  6
Continuous
 62
     7
100
AcDbPolyline
 90
        3
 70
   128
 43
0.0
 10
1.8846941271
 20
0.8124700144
 10
1.8912737317
 20
0.8105039193
 10
1.8988010771
 20
0.8087693394
  0
LWPOLYLINE
  5
19E
330
1F
100
AcDbEntity
  8
0
  6
Continuous
 62
     7
100
AcDbPolyline
 90
        3
 70
   128
 43
0.0
 10
1.8988010771
 20
0.8087693394
 10
1.9121974801
 20
0.806989419
 10
1.9279233021
 20
0.8070863394
  0
LWPOLYLINE
  5
19F
330
1F
100
AcDbEntity
  8
0
  6
Continuous
 62
     7
100
AcDbPolyline
 90
        3
 70
   128
 43
0.0
 10
1.9279233021
 20
0.8070863394
 10
1.9550868688
 20
0.8092533471
 10
1.9848551771
 20
0.8153932644
  0
LWPOLYLINE
  5
1A0
330
1F
100
AcDbEntity
  8
0
  6
Continuous
 62
     7
100
AcDbPolyline
 90
        3
 70
   128
 43
0.0
 10
1.9848551771
 20
0.8153932644
 10
2.0636013668
 20
0.84101634
 10
2.1039384271
 20
0.8685559894
  0
LWPOLYLINE
  5
1A1
330
1F
100
AcDbEntity
  8
0
  6
Continuous
 62
     7
100
AcDbPolyline
 90
        3
 70
   128
 43
0.0
 10
2.1039384271
 20
0.8685559894
 10
2.1178823147
 20
0.8844387306
 10
2.1257764521
 20
0.8971631394
  0
LWPOLYLINE
  5
1A2
330
1F
100
AcDbEntity
  8
0
  6
Continuous
 62
     7
100
AcDbPolyline
 90
        3
 70
   128
 43
0.0
 10
2.1257764521
 20
0.8971631394
 10
2.1345834092
 20
0.9229589567
 10
2.1401254021
 20
0.9500885394
  0
LWPOLYLINE
  5
1A3
330
1F
100
AcDbEntity
  8
0
  6
Continuous
 62
     7
100
AcDbPolyline
 90
        3
 70
   128
 43
0.0
 10
2.1401254021
 20
0.9500885394
 10
2.1418192776
 20
0.9830666392
 10
2.1406380021
 20
1.0083263894
  0
LWPOLYLINE
  5
1A4
330
1F
100
AcDbEntity
  8
0
  6
Continuous
 62
     7
100
AcDbPolyline
 90
        3
 70
   128
 43
0.0
 10
2.1406380021
 20
1.0083263894
 10
2.1328952881
 20
1.0438660747
 10
2.1244517771
 20
1.0650366144
  0
LWPOLYLINE
  5
1A5
330
1F
100
AcDbEntity
  8
0
  6
Continuous
 62
     7
100
AcDbPolyline
 90
        3
 70
   128
 43
0.0
 10
2.1244517771
 20
1.0650366144
 10
2.1199091853
 20
1.0742554383
 10
2.1153446021
 20
1.0844056894
  0
LWPOLYLINE
  5
1A6
330
1F
100
AcDbEntity
  8
0
  6
Continuous
 62
     7
100
AcDbPolyline
 90
        3
 70
   128
 43
0.0
 10
2.1119863021
 20
1.1029604894
 10
2.1238669179
 20
1.1198163357
 10
2.1350654021
 20
1.1331673144
  0
LWPOLYLINE
  5
1A7
330
1F
100
AcDbEntity
  8
0
  6
Continuous
 62
     7
100
AcDbPolyline
 90
        3
 70
   128
 43
0.0
 10
2.1350654021
 20
1.1331673144
 10
2.1500669819
 20
1.1474572986
 10
2.1687270521
 20
1.1642843894
  0
ARC
  5
1A8
330
1F
100
AcDbEntity
  8
0
  6
Continuous
 62
     7
100
AcDbCircle
 10
1.7452092145
 20
1.6860318987
 30
0.0
 40
0.6720028438781809
100
AcDbArc
 50
309.0672566654
 51
319.6561165915
  0
ARC
  5
1A9
330
1F
100
AcDbEntity
  8
0
  6
Continuous
 62
     7
100
AcDbCircle
 10
2.2476934929
 20
1.2466656011
 30
0.0
 40
0.0106204220800969
100
AcDbArc
 50
24.0566955594
 51
47.2273406609
  0
ARC
  5
1AA
330
1F
100
AcDbEntity
  8
0
  6
Continuous
 62
     7
100
AcDbCircle
 10
0.8886588796
 20
3.5983486737
 30
0.0
 40
2.708703650162449
100
AcDbArc
 50
295.8403774685
 51
299.3764744439
  0
LWPOLYLINE
  5
1AB
330
1F
100
AcDbEntity
  8
0
  6
Continuous
 62
     7
100
AcDbPolyline
 90
        3
 70
   128
 43
0.0
 10
2.0556858271
 20
1.1628068144
 10
2.0037442825
 20
1.1838657661
 10
1.9566412771
 20
1.1941441644
  0
ARC
  5
1AC
330
1F
100
AcDbEntity
  8
0
  6
Continuous
 62
     7
100
AcDbCircle
 10
1.8918702627
 20
0.6441476012
 30
0.0
 40
0.5537973490079833
100
AcDbArc
 50
83.2834292564
 51
96.7058587038
  0
LWPOLYLINE
  5
1AD
330
1F
100
AcDbEntity
  8
0
  6
Continuous
 62
     7
100
AcDbPolyline
 90
        3
 70
   128
 43
0.0
 10
1.8272020771
 20
1.1941562644
 10
1.7548129645
 20
1.1681907031
 10
1.7095939271
 20
1.1313646894
  0
LWPOLYLINE
  5
1AE
330
1F
100
AcDbEntity
  8
0
  6
Continuous
 62
     7
100
AcDbPolyline
 90
        3
 70
   128
 43
0.0
 10
1.7095939271
 20
1.1313646894
 10
1.6916176803
 20
1.1069455941
 10
1.6791343771
 20
1.0864184144
  0
LWPOLYLINE
  5
1AF
330
1F
100
AcDbEntity
  8
0
  6
Continuous
 62
     7
100
AcDbPolyline
 90
        3
 70
   128
 43
0.0
 10
1.6791343771
 20
1.0864184144
 10
1.6626531522
 20
1.0463098245
 10
1.6539683021
 20
1.0123565144
  0
LWPOLYLINE
  5
1B0
330
1F
100
AcDbEntity
  8
0
  6
Continuous
 62
     7
100
AcDbPolyline
 90
        3
 70
   128
 43
0.0
 10
1.6539683021
 20
1.0123565144
 10
1.6512721533
 20
0.9938134062
 10
1.6507315521
 20
0.9793848394
  0
LWPOLYLINE
  5
1B1
330
1F
100
AcDbEntity
  8
0
  6
Continuous
 62
     7
100
AcDbPolyline
 90
        3
 70
   128
 43
0.0
 10
1.6507315521
 20
0.9793848394
 10
1.6501347516
 20
0.9695410741
 10
1.6476477021
 20
0.9665371144
  0
LWPOLYLINE
  5
1B2
330
1F
100
AcDbEntity
  8
0
  6
Continuous
 62
     7
100
AcDbPolyline
 90
        4
 70
   128
 43
0.0
 10
1.6476477021
 20
0.9665371144
 10
1.6414354993
 20
0.9631004136
 10
1.6341603614
 20
0.9641686769
 10
1.6078106521
 20
0.9834828894
  0
LWPOLYLINE
  5
1B3
330
1F
100
AcDbEntity
  8
0
  6
Continuous
 62
     7
100
AcDbPolyline
 90
        3
 70
   128
 43
0.0
 10
1.6078106521
 20
0.9834828894
 10
1.5805092699
 20
1.0012548316
 10
1.5612559021
 20
1.0053030394
  0
LWPOLYLINE
  5
1B4
330
1F
100
AcDbEntity
  8
0
  6
Continuous
 62
     7
100
AcDbPolyline
 90
        3
 70
   128
 43
0.0
 10
1.5612559021
 20
1.0053030394
 10
1.5552740798
 20
1.0045040396
 10
1.5487093021
 20
1.0030953394
  0
LWPOLYLINE
  5
1B5
330
1F
100
AcDbEntity
  8
0
  6
Continuous
 62
     7
100
AcDbPolyline
 90
        3
 70
   128
 43
0.0
 10
1.5403655271
 20
0.9907142894
 10
1.5412271268
 20
0.9807218276
 10
1.5420072771
 20
0.9745321894
  0
LWPOLYLINE
  5
1B6
330
1F
100
AcDbEntity
  8
0
  6
Continuous
 62
     7
100
AcDbPolyline
 90
        3
 70
   128
 43
0.0
 10
1.5420072771
 20
0.9745321894
 10
1.542765356
 20
0.9679646349
 10
1.5429970021
 20
0.9631342644
  0
LWPOLYLINE
  5
1B7
330
1F
100
AcDbEntity
  8
0
  6
Continuous
 62
     7
100
AcDbPolyline
 90
        3
 70
   128
 43
0.0
 10
1.5429970021
 20
0.9631342644
 10
1.5422881694
 20
0.9577438275
 10
1.5398226771
 20
0.9547739894
  0
LWPOLYLINE
  5
1B8
330
1F
100
AcDbEntity
  8
0
  6
Continuous
 62
     7
100
AcDbPolyline
 90
        3
 70
   128
 43
0.0
 10
1.5398226771
 20
0.9547739894
 10
1.5256858565
 20
0.9465925652
 10
1.4986752521
 20
0.9347941394
  0
LWPOLYLINE
  5
1B9
330
1F
100
AcDbEntity
  8
0
  6
Continuous
 62
     7
100
AcDbPolyline
 90
        3
 70
   128
 43
0.0
 10
1.4986752521
 20
0.9347941394
 10
1.4747224052
 20
0.9230954845
 10
1.4712044021
 20
0.9159252894
  0
LWPOLYLINE
  5
1BA
330
1F
100
AcDbEntity
  8
0
  6
Continuous
 62
     7
100
AcDbPolyline
 90
        3
 70
   128
 43
0.0
 10
1.4712044021
 20
0.9159252894
 10
1.4743684464
 20
0.9070465734
 10
1.4825440271
 20
0.8994351894
  0
LWPOLYLINE
  5
1BB
330
1F
100
AcDbEntity
  8
0
  6
Continuous
 62
     7
100
AcDbPolyline
 90
        3
 70
   128
 43
0.0
 10
1.4825440271
 20
0.8994351894
 10
1.5121542162
 20
0.8838622518
 10
1.5369569021
 20
0.8764064144
  0
LWPOLYLINE
  5
1BC
330
1F
100
AcDbEntity
  8
0
  6
Continuous
 62
     7
100
AcDbPolyline
 90
        3
 70
   128
 43
0.0
 10
1.5369569021
 20
0.8764064144
 10
1.5811528727
 20
0.8733455281
 10
1.6155532771
 20
0.8742974394
  0
LWPOLYLINE
  5
1BD
330
1F
100
AcDbEntity
  8
0
  6
Continuous
 62
     7
100
AcDbPolyline
 90
        3
 70
   128
 43
0.0
 10
1.6155532771
 20
0.8742974394
 10
1.6465955511
 20
0.8769203033
 10
1.6573736271
 20
0.8764396894
  0
LWPOLYLINE
  5
1BE
330
1F
100
AcDbEntity
  8
0
  6
Continuous
 62
     7
100
AcDbPolyline
 90
        4
 70
   128
 43
0.0
 10
1.6573736271
 20
0.8764396894
 10
1.6755024521
 20
0.8721121175
 10
1.6810322294
 20
0.8692116452
 10
1.6830655021
 20
0.8662712894
  0
LWPOLYLINE
  5
1BF
330
1F
100
AcDbEntity
  8
0
  6
Continuous
 62
     7
100
AcDbPolyline
 90
        4
 70
   128
 43
0.0
 10
1.6830655021
 20
0.8662712894
 10
1.6820171505
 20
0.864686821
 10
1.6786826208
 20
0.862822755
 10
1.6640181771
 20
0.8577471144
  0
LWPOLYLINE
  5
1C0
330
1F
100
AcDbEntity
  8
0
  6
Continuous
 62
     7
100
AcDbPolyline
 90
        3
 70
   128
 43
0.0
 10
1.6640181771
 20
0.8577471144
 10
1.6476681725
 20
0.8517624583
 10
1.6432268021
 20
0.8470314644
  0
LWPOLYLINE
  5
1C1
330
1F
100
AcDbEntity
  8
0
  6
Continuous
 62
     7
100
AcDbPolyline
 90
        3
 70
   128
 43
0.0
 10
1.6432268021
 20
0.8470314644
 10
1.6431375841
 20
0.8395491726
 10
1.6481377521
 20
0.8326079894
  0
LWPOLYLINE
  5
1C2
330
1F
100
AcDbEntity
  8
0
  6
Continuous
 62
     7
100
AcDbPolyline
 90
        3
 70
   128
 43
0.0
 10
1.6481377521
 20
0.8326079894
 10
1.6526373578
 20
0.827487467
 10
1.6558589271
 20
0.8233542394
  0
LWPOLYLINE
  5
1C3
330
1F
100
AcDbEntity
  8
0
  6
Continuous
 62
     7
100
AcDbPolyline
 90
        3
 70
   128
 43
0.0
 10
1.6558589271
 20
0.8233542394
 10
1.6965386847
 20
0.799167593
 10
1.7440280521
 20
0.7967427644
  0
LWPOLYLINE
  5
1C4
330
1F
100
AcDbEntity
  8
0
  6
Continuous
 62
     7
100
AcDbPolyline
 90
        3
 70
   128
 43
0.0
 10
1.9505954021
 20
0.8807643394
 10
1.9407575531
 20
0.8847131157
 10
1.9339606521
 20
0.8903445144
  0
LWPOLYLINE
  5
1C5
330
1F
100
AcDbEntity
  8
0
  6
Continuous
 62
     7
100
AcDbPolyline
 90
        3
 70
   128
 43
0.0
 10
1.9339606521
 20
0.8903445144
 10
1.9263856237
 20
0.9026140482
 10
1.9250866771
 20
0.9146154644
  0
LWPOLYLINE
  5
1C6
330
1F
100
AcDbEntity
  8
0
  6
Continuous
 62
     7
100
AcDbPolyline
 90
        3
 70
   128
 43
0.0
 10
1.9250866771
 20
0.9146154644
 10
1.9317004626
 20
0.932986838
 10
1.9440457271
 20
0.9427204644
  0
LWPOLYLINE
  5
1C7
330
1F
100
AcDbEntity
  8
0
  6
Continuous
 62
     7
100
AcDbPolyline
 90
        3
 70
   128
 43
0.0
 10
1.9440457271
 20
0.9427204644
 10
1.9511918805
 20
0.9450140302
 10
1.9596640771
 20
0.9453486394
  0
LWPOLYLINE
  5
1C8
330
1F
100
AcDbEntity
  8
0
  6
Continuous
 62
     7
100
AcDbPolyline
 90
        3
 70
   128
 43
0.0
 10
1.9596640771
 20
0.9453486394
 10
1.96977918
 20
0.9447315887
 10
1.9754251521
 20
0.9425571144
  0
LWPOLYLINE
  5
1C9
330
1F
100
AcDbEntity
  8
0
  6
Continuous
 62
     7
100
AcDbPolyline
 90
        3
 70
   128
 43
0.0
 10
1.9754251521
 20
0.9425571144
 10
1.989680306
 20
0.9293725392
 10
1.9941754771
 20
0.9146316894
  0
LWPOLYLINE
  5
1CA
330
1F
100
AcDbEntity
  8
0
  6
Continuous
 62
     7
100
AcDbPolyline
 90
        3
 70
   128
 43
0.0
 10
1.9941754771
 20
0.9146316894
 10
1.9860105047
 20
0.8914356316
 10
1.9686494271
 20
0.8808798394
  0
LWPOLYLINE
  5
1CB
330
1F
100
AcDbEntity
  8
0
  6
Continuous
 62
     7
100
AcDbPolyline
 90
        3
 70
   128
 43
0.0
 10
1.9686494271
 20
0.8808798394
 10
1.9586230789
 20
0.8795206642
 10
1.9505954021
 20
0.8807643394
  0
LWPOLYLINE
  5
1CC
330
1F
100
AcDbEntity
  8
0
  6
Continuous
 62
     7
100
AcDbPolyline
 90
        3
 70
   128
 43
0.0
 10
1.9746163771
 20
0.9155614644
 10
1.9798729273
 20
0.9197366964
 10
1.9813285771
 20
0.9244555144
  0
LWPOLYLINE
  5
1CD
330
1F
100
AcDbEntity
  8
0
  6
Continuous
 62
     7
100
AcDbPolyline
 90
        3
 70
   128
 43
0.0
 10
1.9813285771
 20
0.9244555144
 10
1.977848969
 20
0.9314076113
 10
1.9723847521
 20
0.9337606894
  0
LWPOLYLINE
  5
1CE
330
1F
100
AcDbEntity
  8
0
  6
Continuous
 62
     7
100
AcDbPolyline
 90
        3
 70
   128
 43
0.0
 10
1.9723847521
 20
0.9337606894
 10
1.9650848724
 20
0.9313747528
 10
1.9618789271
 20
0.9256468144
  0
LWPOLYLINE
  5
1CF
330
1F
100
AcDbEntity
  8
0
  6
Continuous
 62
     7
100
AcDbPolyline
 90
        3
 70
   128
 43
0.0
 10
1.9618789271
 20
0.9256468144
 10
1.9634343411
 20
0.9197225433
 10
1.9674391521
 20
0.9161320894
  0
LWPOLYLINE
  5
1D0
330
1F
100
AcDbEntity
  8
0
  6
Continuous
 62
     7
100
AcDbPolyline
 90
        3
 70
   128
 43
0.0
 10
1.9674391521
 20
0.9161320894
 10
1.9716932515
 20
0.9147394324
 10
1.9746163771
 20
0.9155614644
  0
CIRCLE
  5
1F3
330
1F
100
AcDbEntity
  8
0
  6
Continuous
 62
     7
370
    15
100
AcDbCircle
 10
1.9
 20
0.25
 30
0.0
 40
0.0579999999999992
  0
LINE
  5
1F4
330
1F
100
AcDbEntity
  8
0
  6
Continuous
 62
     7
370
    15
100
AcDbLine
 10
2.15
 20
1.4518897638
 30
0.0
 11
2.15
 21
1.57
 31
0.0
  0
LINE
  5
1F5
330
1F
100
AcDbEntity
  8
0
  6
Continuous
 62
     7
370
    15
100
AcDbLine
 10
3.8
 20
1.57
 30
0.0
 11
2.15
 21
1.57
 31
0.0
  0
LINE
  5
1F6
330
1F
100
AcDbEntity
  8
0
  6
Continuous
 62
     7
370
    15
100
AcDbLine
 10
3.8
 20
1.3518897638
 30
0.0
 11
3.8
 21
1.57
 31
0.0
  0
LINE
  5
1F7
330
1F
100
AcDbEntity
  8
0
  6
Continuous
 62
     7
370
    15
100
AcDbLine
 10
3.8
 20
1.3518897638
 30
0.0
 11
3.6
 21
1.3518897638
 31
0.0
  0
LINE
  5
1F8
330
1F
100
AcDbEntity
  8
0
  6
Continuous
 62
     7
370
    15
100
AcDbLine
 10
3.6
 20
1.3518897638
 30
0.0
 11
3.6
 21
1.4126397638
 31
0.0
  0
LINE
  5
1F9
330
1F
100
AcDbEntity
  8
0
  6
Continuous
 62
     7
370
    15
100
AcDbLine
 10
3.6
 20
1.4126397638
 30
0.0
 11
3.50625
 21
1.4126397638
 31
0.0
  0
LINE
  5
1FA
330
1F
100
AcDbEntity
  8
0
  6
Continuous
 62
     7
370
    15
100
AcDbLine
 10
3.50625
 20
1.4126397638
 30
0.0
 11
3.50625
 21
1.3518897638
 31
0.0
  0
LINE
  5
1FB
330
1F
100
AcDbEntity
  8
0
  6
Continuous
 62
     7
370
    15
100
AcDbLine
 10
3.50625
 20
1.3518897638
 30
0.0
 11
3.4
 21
1.3518897638
 31
0.0
  0
LINE
  5
1FC
330
1F
100
AcDbEntity
  8
0
  6
Continuous
 62
     7
370
    15
100
AcDbLine
 10
3.4
 20
1.3518897638
 30
0.0
 11
3.4
 21
1.2233897638
 31
0.0
  0
LINE
  5
1FD
330
1F
100
AcDbEntity
  8
0
  6
Continuous
 62
     7
370
    15
100
AcDbLine
 10
3.4
 20
1.2233897638
 30
0.0
 11
3.50625
 21
1.2233897638
 31
0.0
  0
LINE
  5
1FE
330
1F
100
AcDbEntity
  8
0
  6
Continuous
 62
     7
370
    15
100
AcDbLine
 10
3.50625
 20
1.2233897638
 30
0.0
 11
3.50625
 21
1.1626397638
 31
0.0
  0
LINE
  5
1FF
330
1F
100
AcDbEntity
  8
0
  6
Continuous
 62
     7
370
    15
100
AcDbLine
 10
3.50625
 20
1.1626397638
 30
0.0
 11
3.6
 21
1.1626397638
 31
0.0
  0
LINE
  5
200
330
1F
100
AcDbEntity
  8
0
  6
Continuous
 62
     7
370
    15
100
AcDbLine
 10
3.6
 20
1.1626397638
 30
0.0
 11
3.6
 21
1.2233897638
 31
0.0
  0
LINE
  5
201
330
1F
100
AcDbEntity
  8
0
  6
Continuous
 62
     7
370
    15
100
AcDbLine
 10
3.6
 20
1.2233897638
 30
0.0
 11
3.8
 21
1.2233897638
 31
0.0
  0
LINE
  5
202
330
1F
100
AcDbEntity
  8
0
  6
Continuous
 62
     7
370
    15
100
AcDbLine
 10
3.8
 20
0.1
 30
0.0
 11
3.8
 21
1.2233897638
 31
0.0
  0
LINE
  5
203
330
1F
100
AcDbEntity
  8
0
  6
Continuous
 62
     7
370
    15
100
AcDbLine
 10
0.1
 20
0.0
 30
0.0
 11
3.7
 21
0.0
 31
0.0
  0
LINE
  5
204
330
1F
100
AcDbEntity
  8
0
  6
Continuous
 62
     7
370
    15
100
AcDbLine
 10
0.0
 20
1.2233897638
 30
0.0
 11
0.0
 21
0.1
 31
0.0
  0
LINE
  5
205
330
1F
100
AcDbEntity
  8
0
  6
Continuous
 62
     7
370
    15
100
AcDbLine
 10
0.0
 20
1.2233897638
 30
0.0
 11
0.2
 21
1.2233897638
 31
0.0
  0
LINE
  5
206
330
1F
100
AcDbEntity
  8
0
  6
Continuous
 62
     7
370
    15
100
AcDbLine
 10
0.2
 20
1.2233897638
 30
0.0
 11
0.2
 21
1.1626397638
 31
0.0
  0
LINE
  5
207
330
1F
100
AcDbEntity
  8
0
  6
Continuous
 62
     7
370
    15
100
AcDbLine
 10
0.2
 20
1.1626397638
 30
0.0
 11
0.29375
 21
1.1626397638
 31
0.0
  0
LINE
  5
208
330
1F
100
AcDbEntity
  8
0
  6
Continuous
 62
     7
370
    15
100
AcDbLine
 10
0.29375
 20
1.1626397638
 30
0.0
 11
0.29375
 21
1.2233897638
 31
0.0
  0
LINE
  5
209
330
1F
100
AcDbEntity
  8
0
  6
Continuous
 62
     7
370
    15
100
AcDbLine
 10
0.29375
 20
1.2233897638
 30
0.0
 11
0.4
 21
1.2233897638
 31
0.0
  0
LINE
  5
20A
330
1F
100
AcDbEntity
  8
0
  6
Continuous
 62
     7
370
    15
100
AcDbLine
 10
0.4
 20
1.2233897638
 30
0.0
 11
0.4
 21
1.3518897638
 31
0.0
  0
LINE
  5
20B
330
1F
100
AcDbEntity
  8
0
  6
Continuous
 62
     7
370
    15
100
AcDbLine
 10
0.4
 20
1.3518897638
 30
0.0
 11
0.29375
 21
1.3518897638
 31
0.0
  0
LINE
  5
20C
330
1F
100
AcDbEntity
  8
0
  6
Continuous
 62
     7
370
    15
100
AcDbLine
 10
0.29375
 20
1.3518897638
 30
0.0
 11
0.29375
 21
1.4126397638
 31
0.0
  0
LINE
  5
20D
330
1F
100
AcDbEntity
  8
0
  6
Continuous
 62
     7
370
    15
100
AcDbLine
 10
0.29375
 20
1.4126397638
 30
0.0
 11
0.2
 21
1.4126397638
 31
0.0
  0
LINE
  5
20E
330
1F
100
AcDbEntity
  8
0
  6
Continuous
 62
     7
370
    15
100
AcDbLine
 10
0.2
 20
1.4126397638
 30
0.0
 11
0.2
 21
1.3518897638
 31
0.0
  0
LINE
  5
20F
330
1F
100
AcDbEntity
  8
0
  6
Continuous
 62
     7
370
    15
100
AcDbLine
 10
0.2
 20
1.3518897638
 30
0.0
 11
0.0
 21
1.3518897638
 31
0.0
  0
LINE
  5
210
330
1F
100
AcDbEntity
  8
0
  6
Continuous
 62
     7
370
    15
100
AcDbLine
 10
0.0
 20
1.57
 30
0.0
 11
0.0
 21
1.3518897638
 31
0.0
  0
LINE
  5
211
330
1F
100
AcDbEntity
  8
0
  6
Continuous
 62
     7
370
    15
100
AcDbLine
 10
1.65
 20
1.57
 30
0.0
 11
0.0
 21
1.57
 31
0.0
  0
LINE
  5
212
330
1F
100
AcDbEntity
  8
0
  6
Continuous
 62
     7
370
    15
100
AcDbLine
 10
1.65
 20
1.57
 30
0.0
 11
1.65
 21
1.4518897638
 31
0.0
  0
LINE
  5
213
330
1F
100
AcDbEntity
  8
0
  6
Continuous
 62
     7
370
    15
100
AcDbLine
 10
1.65
 20
1.4518897638
 30
0.0
 11
2.15
 21
1.4518897638
 31
0.0
  0
ARC
  5
214
330
1F
100
AcDbEntity
  8
0
  6
Continuous
 62
     7
370
    15
100
AcDbCircle
 10
3.7
 20
0.1
 30
0.0
 40
0.1000000000000001
100
AcDbArc
 50
270.0
 51
0.0
  0
ARC
  5
215
330
1F
100
AcDbEntity
  8
0
  6
Continuous
 62
     7
370
    15
100
AcDbCircle
 10
0.1
 20
0.1
 30
0.0
 40
0.0999999999999999
100
AcDbArc
 50
180.0
 51
270.0
  0
MTEXT
  5
217
330
1F
100
AcDbEntity
  8
0
  6
Continuous
 62
     7
100
AcDbMText
 10
0.0
 20
-0.0401404091
 30
0.0
 40
0.1903
 41
0.0
 71
     1
 72
     1
  1
SolidWorks Student Edition.
  7
SLDTEXTSTYLE0
 73
     1
 44
1.0
  0
MTEXT
  5
218
330
1F
100
AcDbEntity
  8
0
  6
Continuous
 62
     7
100
AcDbMText
 10
0.0
 20
-0.3255904091
 30
0.0
 40
0.1903
 41
0.0
 71
     1
 72
     1
  1
For Academic Use Only.
  7
SLDTEXTSTYLE0
 73
     1
 44
1.0
  0
ENDSEC
  0
SECTION
  2
OBJECTS
  0
DICTIONARY
  5
C
330
0
100
AcDbDictionary
281
     1
  3
ACAD_GROUP
350
D
  3
ACAD_LAYOUT
350
1A
  3
ACAD_MLINESTYLE
350
17
  3
ACAD_PLOTSETTINGS
350
19
  3
ACAD_PLOTSTYLENAME
350
E
  0
DICTIONARY
  5
D
102
{ACAD_REACTORS
330
C
102
}
330
C
100
AcDbDictionary
281
     1
  0
DICTIONARY
  5
1A
102
{ACAD_REACTORS
330
C
102
}
330
C
100
AcDbDictionary
281
     1
  3
Layout1
350
1E
  3
Layout2
350
26
  3
Model
350
22
  0
DICTIONARY
  5
17
102
{ACAD_REACTORS
330
C
102
}
330
C
100
AcDbDictionary
281
     1
  3
Standard
350
18
  0
DICTIONARY
  5
19
102
{ACAD_REACTORS
330
C
102
}
330
C
100
AcDbDictionary
281
     1
  0
ACDBDICTIONARYWDFLT
  5
E
102
{ACAD_REACTORS
330
C
102
}
330
C
100
AcDbDictionary
281
     1
  3
Normal
350
F
100
AcDbDictionaryWithDefault
340
F
  0
LAYOUT
  5
1E
102
{ACAD_REACTORS
330
1A
102
}
330
1A
100
AcDbPlotSettings
  1

  2
none_device
  4

  6

 40
0.0
 41
0.0
 42
0.0
 43
0.0
 44
0.0
 45
0.0
 46
0.0
 47
0.0
 48
0.0
 49
0.0
140
0.0
141
0.0
142
1.0
143
1.0
 70
   688
 72
     0
 73
     0
 74
     5
  7

 75
    16
147
1.0
148
0.0
149
0.0
100
AcDbLayout
  1
Layout1
 70
     1
 71
     1
 10
0.0
 20
0.0
 11
12.0
 21
9.0
 12
0.0
 22
0.0
 32
0.0
 14
1.0000000000E+20
 24
1.0000000000E+20
 34
1.0000000000E+20
 15
-1.0000000000E+20
 25
-1.0000000000E+20
 35
-1.0000000000E+20
146
0.0
 13
0.0
 23
0.0
 33
0.0
 16
1.0
 26
0.0
 36
0.0
 17
0.0
 27
1.0
 37
0.0
 76
     0
330
1B
  0
LAYOUT
  5
26
102
{ACAD_REACTORS
330
1A
102
}
330
1A
100
AcDbPlotSettings
  1

  2
none_device
  4

  6

 40
0.0
 41
0.0
 42
0.0
 43
0.0
 44
0.0
 45
0.0
 46
0.0
 47
0.0
 48
0.0
 49
0.0
140
0.0
141
0.0
142
1.0
143
1.0
 70
   688
 72
     0
 73
     0
 74
     5
  7

 75
    16
147
1.0
148
0.0
149
0.0
100
AcDbLayout
  1
Layout2
 70
     1
 71
     2
 10
0.0
 20
0.0
 11
0.0
 21
0.0
 12
0.0
 22
0.0
 32
0.0
 14
0.0
 24
0.0
 34
0.0
 15
0.0
 25
0.0
 35
0.0
146
0.0
 13
0.0
 23
0.0
 33
0.0
 16
1.0
 26
0.0
 36
0.0
 17
0.0
 27
1.0
 37
0.0
 76
     0
330
23
  0
LAYOUT
  5
22
102
{ACAD_REACTORS
330
1A
102
}
330
1A
100
AcDbPlotSettings
  1

  2
none_device
  4
ANSI_A_(11.00_x_8.50_Inches)
  6

 40
6.35
 41
19.05
 42
6.35000508
 43
19.05000254
 44
279.4
 45
215.9
 46
-4.95300254
 47
31.7590224142
 48
0.0
 49
0.0
140
0.0
141
0.0
142
2.8657894737
143
1.0
 70
  1696
 72
     0
 73
     0
 74
     0
  7

 75
     0
147
0.5913241897
148
0.0
149
0.0
100
AcDbLayout
  1
Model
 70
     1
 71
     0
 10
0.0
 20
0.0
 11
12.0
 21
9.0
 12
0.0
 22
0.0
 32
0.0
 14
0.0
 24
0.0
 34
0.0
 15
3.8
 25
1.57
 35
0.0
146
0.0
 13
0.0
 23
0.0
 33
0.0
 16
1.0
 26
0.0
 36
0.0
 17
0.0
 27
1.0
 37
0.0
 76
     0
330
1F
331
29
  0
MLINESTYLE
  5
18
102
{ACAD_REACTORS
330
17
102
}
330
17
100
AcDbMlineStyle
  2
Standard
 70
     0
  3

 62
   256
 51
90.0
 52
90.0
 71
     2
 49
0.5
 62
   256
  6
BYLAYER
 49
-0.5
 62
   256
  6
BYLAYER
  0
ACDBPLACEHOLDER
  5
F
102
{ACAD_REACTORS
330
E
102
}
330
E
  0
ENDSEC
  0
EOF
